<?xml version="1.0" encoding="UTF-8" standalone="no"?>
<!DOCTYPE svg PUBLIC "-//W3C//DTD SVG 1.1//EN" "http://www.w3.org/Graphics/SVG/1.1/DTD/svg11.dtd">
<svg width="3000.00" height="3000.00" viewBox="0.00 0.00 3000.00 3000.00" xmlns="http://www.w3.org/2000/svg" xmlns:xlink="http://www.w3.org/1999/xlink">
<g stroke-linecap="round" transform="translate(69.00, -13.00)" id="レイヤー_2">
<path d="M533.53,1371.53 C533.18,1374.44 532.01,1383.78 531.71,1385.83 C529.35,1401.81 529.54,1415.79 530.73,1434.80 C531.62,1447.92 533.70,1477.23 534.89,1493.41 C536.66,1511.63 540.86,1549.79 543.29,1569.73 C548.07,1602.85 558.20,1662.73 563.70,1693.76 C566.86,1710.32 573.39,1743.26 576.75,1759.64 C580.28,1775.57 587.49,1806.98 591.18,1822.45 C595.03,1837.47 603.38,1868.56 607.87,1884.62 C612.59,1900.18 622.22,1930.80 627.15,1945.86 C637.44,1974.97 659.49,2033.19 670.83,2062.55 C683.20,2092.74 709.04,2154.21 722.51,2185.48 C736.35,2216.51 762.19,2273.68 774.19,2299.82 C779.55,2311.21 797.42,2347.27 805.57,2362.92 C812.77,2376.09 826.33,2399.03 833.43,2410.18 C839.79,2419.83 860.40,2447.47 870.92,2460.55 C876.22,2466.80 886.67,2478.92 891.74,2484.52 C899.61,2492.95 905.40,2498.65 915.47,2507.64 C922.24,2513.43 934.70,2522.98 940.60,2527.42 C949.26,2533.81 957.62,2538.84 963.16,2540.06 C965.06,2540.43 966.78,2540.20 968.49,2539.32 C971.63,2537.62 976.24,2533.10 978.22,2529.22 C978.88,2527.88 988.37,2497.07 992.32,2483.60 C1001.64,2448.40 1017.84,2386.02 1024.71,2358.83 C1032.69,2326.96 1049.45,2261.39 1058.24,2227.70 C1066.98,2195.79 1084.77,2132.19 1093.82,2100.51 C1103.33,2068.48 1122.10,2007.05 1131.35,1977.64 C1136.05,1963.48 1146.75,1932.17 1152.75,1915.04 C1158.68,1899.00 1170.46,1868.01 1176.32,1853.06 C1187.47,1825.86 1209.60,1772.84 1220.58,1747.01 C1226.18,1734.30 1237.16,1709.68 1242.54,1697.77 C1257.81,1665.64 1287.28,1604.70 1301.49,1575.89 C1317.71,1543.37 1350.55,1477.66 1367.16,1444.49 C1379.14,1420.57 1405.24,1368.40 1405.81,1368.14 C1406.16,1367.98 1407.13,1367.87 1408.69,1367.83 C1415.62,1385.31 1437.49,1441.84 1452.45,1480.90 C1462.77,1508.48 1484.55,1566.88 1496.00,1597.68 C1508.94,1632.71 1533.36,1699.25 1544.84,1730.76 C1554.24,1757.14 1578.29,1825.85 1589.62,1860.36 C1597.01,1884.72 1612.51,1934.12 1622.87,1963.96 C1628.60,1979.64 1640.20,2010.62 1646.06,2025.92 C1651.73,2039.91 1663.15,2066.85 1668.90,2079.79 C1674.69,2092.12 1687.58,2117.65 1694.65,2131.27 C1713.74,2166.18 1741.79,2215.21 1757.02,2241.63 C1765.75,2256.56 1783.22,2286.16 1791.96,2300.83 C1800.57,2314.94 1817.64,2342.61 1826.11,2356.17 C1836.55,2372.24 1857.55,2403.96 1868.10,2419.62 C1878.46,2434.39 1897.90,2461.79 1906.98,2474.41 C1914.10,2484.07 1926.73,2500.93 1926.89,2501.17 C1927.83,2502.52 1929.62,2504.00 1931.54,2504.84 C1933.09,2505.49 1936.41,2505.60 1938.29,2505.15 C1940.67,2504.51 1942.64,2503.46 1944.20,2502.04 C1951.54,2495.11 1960.85,2484.15 1963.81,2478.49 C1973.99,2459.35 1998.15,2412.95 2012.12,2385.70 C2019.76,2369.96 2035.06,2336.20 2042.71,2318.83 C2050.38,2300.16 2064.39,2265.14 2070.72,2248.79 C2076.27,2233.81 2087.39,2203.17 2092.97,2187.50 C2104.21,2154.09 2126.42,2086.33 2137.38,2051.98 C2146.70,2022.78 2163.58,1970.02 2171.14,1946.47 C2177.89,1925.70 2189.00,1891.92 2193.37,1878.90 C2196.17,1870.92 2205.62,1848.55 2212.39,1833.42 C2224.87,1806.62 2251.80,1749.73 2266.24,1719.63 C2282.37,1686.34 2311.36,1626.09 2324.22,1599.13 C2332.05,1582.44 2348.02,1547.88 2353.96,1534.16 C2357.12,1526.37 2366.44,1499.92 2371.10,1485.54 C2380.07,1456.02 2404.39,1370.30 2405.28,1366.72 C2405.64,1365.31 2406.22,1363.01 2406.45,1362.12" fill="none" stroke="rgb(212, 239, 253)" stroke-width="431.01" stroke-opacity="1.00" stroke-linejoin="round"/>
<path d="M500.08,871.82 C500.08,871.82 516.96,886.15 516.96,886.15 C516.96,886.15 510.95,898.08 510.95,898.08 C510.95,898.08 497.16,896.02 497.16,896.02 C496.64,893.37 494.97,884.96 494.84,882.51 C494.66,878.42 497.05,870.24 499.49,866.64 C500.96,864.51 507.13,857.57 509.06,855.39 C509.06,855.39 518.49,859.76 518.49,859.76 C518.49,859.76 508.93,869.94 508.93,869.94 C504.91,866.42 502.50,863.80 501.12,860.76 C499.58,857.15 498.69,852.07 499.43,846.74 C499.84,843.97 502.07,835.67 503.54,831.48 C505.18,826.88 508.84,819.97 510.56,818.11 C512.31,816.30 515.48,814.30 517.33,813.98 C518.13,813.86 524.80,813.99 525.79,814.02 C526.19,825.53 525.65,833.40 524.11,835.58 C523.67,836.19 521.42,837.44 520.65,837.90 C520.65,837.90 516.85,836.37 516.85,836.37 C519.65,825.40 524.08,810.45 527.17,809.83 C528.12,809.69 529.69,811.92 530.20,813.69 C531.27,817.74 532.48,826.14 532.57,830.96 C532.56,833.21 531.45,837.96 530.30,839.64 C529.55,840.71 525.59,843.00 525.70,842.64 C525.94,841.82 528.98,838.24 529.44,838.05 C530.88,837.73 515.80,853.05 513.75,854.04 C511.87,854.89 510.38,855.27 509.28,855.17 C508.33,855.07 505.18,852.71 504.08,851.94 C504.26,848.62 504.80,839.24 505.50,836.00 C505.97,833.93 507.57,830.23 508.65,828.85 C509.80,827.45 512.83,825.67 513.74,825.84 C514.55,826.08 515.18,828.32 515.03,830.09 C514.74,832.93 512.11,843.00 511.17,846.57 C507.94,845.49 499.93,842.82 495.15,841.23 C493.28,840.60 490.05,839.52 488.69,839.07" fill="none" stroke="rgb(212, 239, 253)" stroke-width="431.01" stroke-opacity="1.00" stroke-linejoin="round"/>
<path d="M2404.48,855.24 C2405.60,855.24 2408.67,855.12 2409.42,855.36 C2410.88,855.84 2413.38,857.91 2414.41,859.32 C2418.06,864.52 2424.33,878.93 2426.82,887.25 C2429.34,895.74 2431.36,909.90 2430.97,916.90 C2430.74,920.68 2429.41,926.89 2427.99,930.43 C2425.39,936.80 2416.00,948.73 2413.84,950.23 C2412.48,951.11 2409.82,951.35 2408.74,950.66 C2406.81,949.32 2404.50,943.55 2403.98,941.76 C2402.39,936.17 2399.94,919.13 2399.20,908.91 C2398.54,899.57 2398.61,882.25 2399.55,874.19 C2400.81,863.68 2404.43,853.64 2409.33,842.65 C2410.32,840.44 2411.68,837.39 2412.05,836.55 C2418.08,839.38 2433.07,846.53 2438.00,851.17 C2441.02,854.08 2444.64,860.00 2445.98,864.12 C2448.38,871.73 2450.80,887.01 2450.61,893.26 C2450.45,897.25 2449.10,903.52 2447.55,907.00 C2446.13,910.11 2441.82,916.22 2440.16,917.65 C2438.62,918.93 2435.42,920.67 2433.64,921.16 C2432.02,921.56 2428.43,921.62 2427.00,921.25 C2424.14,920.42 2417.85,915.00 2415.80,912.06 C2415.01,910.88 2413.08,907.11 2412.67,905.85 C2412.12,903.96 2412.17,900.39 2412.73,897.81 C2413.79,893.32 2420.97,880.02 2422.38,877.40" fill="none" stroke="rgb(212, 239, 253)" stroke-width="431.01" stroke-opacity="1.00" stroke-linejoin="round"/>
<path d="M532.97,1386.68 C532.48,1384.33 530.72,1375.76 530.41,1374.71 C529.25,1370.85 524.47,1364.62 521.15,1362.27 C516.20,1358.86 500.73,1354.02 496.32,1352.65 C490.51,1362.48 486.60,1369.56 484.34,1375.92 C480.28,1388.12 470.07,1419.94 466.83,1432.67 C464.87,1441.32 461.51,1459.18 460.13,1468.39 C458.50,1481.44 456.64,1509.04 456.22,1523.37 C456.16,1538.12 457.16,1570.31 458.21,1587.93 C459.62,1606.55 462.84,1638.89 464.50,1654.22 C468.63,1687.16 478.52,1755.23 483.48,1788.07 C485.67,1801.86 491.12,1834.06 494.37,1852.48 C497.65,1869.46 503.57,1896.60 506.50,1909.44 C511.55,1930.52 517.31,1951.53 521.53,1966.79 C526.18,1982.86 535.24,2013.54 539.64,2028.15 C542.24,2036.52 552.74,2066.23 557.07,2077.65 C561.26,2087.84 580.33,2127.94 585.86,2138.70 C599.37,2164.17 629.64,2219.97 646.40,2250.30 C654.85,2264.80 671.66,2293.04 680.03,2306.80 C689.07,2321.07 708.55,2350.17 718.27,2364.36 C727.93,2377.86 747.06,2403.21 756.54,2415.53 C765.72,2426.94 783.75,2448.85 792.60,2459.34 C804.94,2473.11 828.76,2497.98 840.25,2509.09 C851.38,2519.36 877.65,2541.90 882.25,2545.31 C889.70,2550.81 906.60,2561.57 913.90,2565.44 C916.85,2567.00 933.79,2575.30 939.73,2578.15 C944.71,2580.47 948.79,2582.06 954.40,2583.76 C958.71,2585.05 964.77,2586.14 968.09,2586.09 C972.41,2585.97 976.03,2585.11 980.80,2583.20 C983.69,2581.98 991.00,2578.37 993.58,2576.86 C996.97,2574.85 1004.09,2569.36 1007.72,2565.95 C1011.73,2562.16 1021.51,2549.63 1025.75,2543.73 C1034.23,2531.34 1052.16,2501.43 1058.34,2489.60 C1063.78,2478.82 1075.72,2453.34 1079.53,2444.20 C1085.69,2428.32 1098.79,2391.24 1104.82,2373.63 C1114.05,2345.24 1134.13,2282.37 1144.97,2247.90 C1150.30,2231.23 1160.60,2199.49 1165.58,2184.40 C1170.20,2170.90 1180.95,2140.55 1187.07,2123.69 C1195.87,2101.20 1205.94,2078.37 1213.27,2063.94 C1225.16,2041.08 1249.84,1994.28 1262.63,1970.34 C1279.04,1938.43 1308.96,1879.47 1322.47,1852.42 C1338.19,1820.22 1367.25,1760.51 1380.59,1732.99 C1395.06,1702.78 1419.89,1650.75 1433.69,1623.08 C1449.98,1591.62 1477.52,1538.70 1488.77,1517.24" fill="none" stroke="rgb(212, 239, 253)" stroke-width="431.01" stroke-opacity="1.00" stroke-linejoin="round"/>
<path d="M1445.59,1612.08 C1443.36,1614.36 1438.09,1619.53 1437.06,1622.28 C1435.86,1625.61 1436.39,1631.27 1436.52,1632.34 C1437.42,1639.80 1443.78,1665.27 1447.48,1690.64 C1449.69,1708.99 1453.46,1742.69 1455.01,1758.04 C1458.16,1794.97 1463.81,1862.91 1466.32,1893.93 C1467.28,1905.74 1471.02,1942.29 1472.91,1952.46 C1476.40,1968.83 1482.13,1990.28 1485.55,2002.83 C1487.70,2010.26 1492.40,2025.81 1495.26,2034.38 C1504.70,2060.77 1514.29,2083.86 1519.69,2096.69 C1525.97,2110.91 1539.37,2140.65 1546.49,2156.16 C1553.84,2171.31 1568.57,2200.72 1575.94,2214.98 C1583.34,2228.56 1600.68,2258.20 1609.41,2272.18 C1618.19,2285.61 1635.96,2311.07 1645.09,2323.51 C1654.40,2335.81 1673.84,2360.30 1684.89,2373.41 C1696.20,2386.42 1719.53,2411.88 1731.29,2424.45 C1741.66,2435.26 1764.45,2458.77 1773.26,2467.26 C1780.34,2473.94 1791.94,2484.34 1796.73,2488.33 C1801.59,2492.24 1813.85,2501.64 1817.24,2503.94 C1823.72,2508.22 1837.07,2516.86 1843.97,2521.07 C1850.72,2524.97 1862.90,2531.50 1871.44,2534.95 C1877.24,2537.28 1892.69,2542.33 1899.63,2544.52 C1903.51,2545.70 1924.54,2550.18 1928.56,2550.74 C1937.22,2551.92 1948.72,2551.82 1957.19,2550.49 C1965.59,2549.14 1979.61,2544.55 1986.53,2540.67 C1990.81,2538.25 2002.87,2529.19 2008.58,2524.10 C2014.43,2518.86 2025.79,2506.78 2031.75,2499.45 C2037.84,2491.94 2055.38,2465.09 2065.72,2447.73 C2073.75,2433.79 2087.48,2409.65 2094.87,2395.57 C2100.57,2384.35 2111.75,2361.91 2118.03,2348.49 C2134.05,2312.35 2157.75,2255.94 2168.39,2230.21 C2181.00,2199.25 2206.40,2136.01 2219.19,2103.73 C2225.18,2088.11 2236.90,2057.25 2242.63,2041.99 C2248.59,2025.55 2260.36,1992.50 2266.17,1975.90 C2276.86,1943.75 2296.95,1881.73 2306.34,1851.85 C2314.34,1825.43 2331.32,1767.34 2340.30,1735.67 C2343.85,1722.08 2350.72,1694.64 2354.07,1679.79 C2357.44,1663.42 2363.84,1630.53 2366.87,1614.00 C2372.42,1579.86 2383.40,1509.38 2388.83,1473.04 C2390.93,1459.27 2396.16,1425.34 2396.30,1424.71 C2397.08,1421.04 2399.32,1416.43 2401.31,1413.66 C2401.82,1412.95 2408.53,1404.50 2410.70,1401.78" fill="none" stroke="rgb(212, 239, 253)" stroke-width="431.01" stroke-opacity="1.00" stroke-linejoin="round"/>
<path d="M586.98,1028.32 C585.14,1029.59 580.20,1034.52 579.68,1034.93 C576.62,1037.37 560.17,1044.48 553.54,1046.61 C546.13,1048.96 531.15,1050.66 522.60,1050.58 C517.71,1050.52 499.63,1048.97 492.05,1047.54 C485.51,1046.29 470.55,1041.43 463.22,1038.31 C455.27,1034.90 442.49,1028.04 436.03,1024.33 C427.68,1019.38 415.71,1011.15 409.90,1006.31 C404.14,1001.48 393.92,991.31 386.06,982.66 C380.93,976.84 370.91,964.95 366.55,958.35 C363.92,954.33 357.74,942.86 353.17,932.78 C349.31,923.94 344.71,911.19 342.72,902.95 C341.30,897.03 338.58,881.56 337.87,873.05 C337.18,864.60 337.01,853.17 337.39,842.19 C338.05,831.59 339.82,817.08 340.81,810.91 C342.16,803.25 345.62,788.93 347.55,781.93 C349.63,774.86 354.85,760.39 357.66,753.42 C360.13,747.46 369.91,729.04 370.13,728.64 C374.44,721.00 380.97,712.30 387.99,705.03 C392.64,700.34 405.90,687.57 409.99,684.02 C416.66,678.23 427.55,670.03 435.43,664.81 C441.95,660.63 455.49,652.94 461.98,649.52 C470.95,645.09 483.77,639.76 491.45,637.42 C498.78,635.21 513.91,632.04 521.38,631.51 C528.78,631.00 545.61,631.93 552.13,633.18 C558.87,634.50 579.09,640.18 582.15,641.21 C585.36,642.30 603.25,649.42 609.07,652.71 C614.68,655.91 626.35,665.73 631.21,671.39 C635.40,676.33 643.39,688.63 647.66,696.35 C657.29,714.45 669.69,740.72 674.30,751.52 C675.99,755.55 683.27,775.87 684.56,780.09 C687.14,788.57 689.58,799.34 691.45,809.94 C692.60,817.41 694.53,832.86 694.93,840.44 C695.28,848.71 694.74,862.73 693.92,870.07 C693.07,877.43 689.99,893.46 687.97,900.93 C687.00,904.52 681.16,922.25 678.40,929.80 C675.46,937.42 669.46,951.64 666.41,958.23 C663.28,964.83 654.35,979.84 649.64,986.41 C645.11,992.64 635.68,1004.25 630.38,1009.77 C624.84,1015.43 613.36,1025.52 607.01,1030.00 C600.83,1034.33 587.20,1041.60 579.84,1044.81 C572.54,1047.97 556.86,1053.62 550.39,1055.26 C542.06,1057.35 526.57,1059.80 518.87,1060.41 C511.27,1060.99 497.05,1060.46 489.14,1059.43 C478.67,1057.91 471.08,1056.41 460.52,1053.82 C452.04,1051.60 439.41,1047.38 431.02,1043.85 C424.99,1041.21 405.25,1031.54 402.77,1030.18 C395.35,1026.08 384.47,1017.83 379.56,1012.82 C377.60,1010.81 371.55,1004.13 369.79,1001.49 C366.06,995.77 362.63,984.93 359.95,974.44 C358.10,966.76 354.47,949.74 352.94,941.05 C351.09,929.78 348.94,898.01 348.50,878.30 C348.49,870.54 348.81,855.86 349.02,848.43 C349.52,836.95 350.42,825.30 351.58,817.43 C352.83,809.11 355.93,795.26 358.66,785.77 C361.10,777.75 367.04,761.48 370.08,753.76 C372.89,746.98 379.75,731.05 382.40,726.02 C385.14,720.82 389.14,714.85 391.93,711.46 C393.85,709.15 397.49,704.97 399.80,703.07 C401.58,701.63 415.47,693.57 427.51,686.07 C431.18,683.76 437.33,679.90 439.81,678.34" fill="none" stroke="rgb(212, 239, 253)" stroke-width="107.75" stroke-opacity="1.00" stroke-linejoin="round"/>
<path d="M2558.32,1015.79 C2558.65,1017.52 2558.50,1018.54 2557.49,1020.08 C2554.67,1024.32 2552.60,1026.89 2549.03,1030.71 C2540.84,1039.27 2531.96,1047.76 2525.53,1052.25 C2518.98,1056.79 2507.83,1062.02 2496.96,1066.27 C2488.66,1069.32 2474.03,1073.55 2466.35,1075.15 C2457.90,1076.90 2443.53,1078.36 2435.94,1078.55 C2426.13,1078.72 2415.94,1078.37 2404.24,1077.57 C2396.03,1076.90 2379.31,1075.04 2374.34,1073.95 C2368.42,1072.65 2355.96,1067.39 2349.98,1064.32 C2340.98,1059.54 2331.60,1053.83 2325.38,1049.04 C2319.25,1044.23 2308.49,1034.13 2304.16,1028.85 C2299.17,1022.73 2290.08,1008.98 2286.58,1002.12 C2283.53,996.11 2277.42,980.54 2274.97,972.63 C2272.88,965.86 2269.67,951.42 2268.04,942.12 C2266.82,934.29 2265.13,921.94 2264.13,911.41 C2262.76,893.01 2262.09,869.76 2263.12,850.70 C2263.68,843.17 2264.90,831.10 2266.61,820.47 C2268.37,811.15 2271.66,796.92 2273.59,790.77 C2275.80,783.76 2281.40,770.11 2285.31,761.93 C2288.71,755.07 2296.80,741.36 2301.34,734.78 C2306.40,727.50 2315.58,716.73 2320.42,711.91 C2326.06,706.30 2336.42,698.28 2343.39,694.33 C2350.41,690.39 2363.38,685.54 2371.96,683.62 C2380.55,681.71 2394.33,679.96 2403.01,679.64 C2411.91,679.33 2424.34,680.24 2433.06,682.05 C2443.08,684.25 2454.10,687.73 2458.39,689.70 C2464.22,692.39 2478.55,701.00 2484.99,704.96 C2493.35,710.31 2505.98,720.07 2511.22,725.29 C2516.72,730.79 2524.15,739.97 2530.50,748.88 C2539.80,762.32 2555.71,789.01 2562.07,801.47 C2566.49,810.75 2571.26,822.86 2573.25,828.95 C2575.50,835.90 2579.40,851.34 2580.61,858.13 C2581.29,862.00 2583.54,881.03 2584.21,889.18 C2584.70,897.39 2585.19,913.72 2584.98,921.55 C2584.65,929.33 2583.53,945.09 2582.75,952.89 C2581.82,960.49 2579.79,973.95 2577.65,983.64 C2575.42,993.02 2571.35,1006.57 2568.42,1013.48 C2565.27,1020.85 2557.02,1034.28 2551.25,1041.43 C2546.22,1047.52 2536.39,1058.74 2530.00,1063.75 C2524.08,1068.36 2513.55,1075.29 2508.40,1077.95 C2502.27,1081.05 2488.18,1083.80 2480.94,1084.77 C2472.57,1085.82 2456.53,1086.46 2448.92,1086.03 C2440.50,1085.48 2429.16,1084.09 2417.94,1082.31 C2399.10,1079.00 2366.90,1071.71 2355.89,1068.12 C2347.99,1065.48 2336.87,1059.43 2329.96,1054.71 C2325.41,1051.56 2318.64,1043.41 2300.32,1022.97 C2295.40,1017.55 2289.71,1011.26 2288.92,1010.40" fill="none" stroke="rgb(212, 239, 253)" stroke-width="107.75" stroke-opacity="1.00" stroke-linejoin="round"/>
<path d="M409.77,1050.29 C409.77,1050.29 414.14,1049.91 414.14,1049.91 C413.46,1052.34 413.39,1053.56 414.05,1055.35 C415.55,1059.66 418.27,1064.84 421.02,1067.40 C423.85,1069.98 430.70,1073.74 433.77,1074.72 C439.09,1076.35 451.42,1077.69 462.02,1078.26 C470.39,1078.53 488.60,1078.91 494.29,1078.80 C504.14,1078.42 514.10,1077.57 523.39,1076.22 C535.04,1074.28 558.59,1069.59 561.09,1069.10 C546.97,1071.34 507.99,1077.20 499.10,1077.92 C489.91,1078.65 473.70,1077.61 469.20,1077.11 C465.21,1076.67 447.34,1073.89 439.77,1072.43 C432.37,1070.85 415.28,1065.89 410.70,1064.30 C402.89,1061.58 390.40,1056.02 383.18,1051.95 C377.52,1048.74 364.57,1040.18 357.96,1034.62 C352.13,1029.70 342.03,1019.48 337.15,1013.01 C332.77,1007.19 325.89,995.35 322.78,987.52 C320.03,980.53 316.22,967.21 314.51,958.50 C313.03,950.30 311.18,934.88 310.88,928.90 C310.58,921.40 310.49,905.59 310.68,897.58 C310.98,889.75 312.25,874.69 313.06,867.14 C315.21,849.95 320.16,826.21 324.77,808.54 C326.77,801.41 331.53,786.80 334.09,779.50 C336.77,772.32 341.30,761.07 345.77,751.59 C350.45,742.21 356.84,730.71 360.68,724.85 C363.60,720.41 374.84,705.71 378.83,700.96 C386.21,692.52 392.17,686.31 399.87,678.88 C405.40,673.75 416.97,663.59 422.82,658.71 C428.80,653.86 441.73,644.41 448.38,639.82 C455.07,635.40 470.75,625.91 475.08,623.69 C482.67,619.83 497.16,613.74 504.18,611.38 C512.24,608.77 526.21,605.95 534.02,605.32 C542.26,604.68 556.16,605.71 563.49,607.24 C571.53,608.94 584.56,613.97 591.44,617.52 C598.90,621.39 611.11,629.58 616.02,633.35 C622.32,638.20 631.98,647.15 637.57,653.27 C642.57,658.92 650.13,667.98 656.06,675.99 C665.22,689.06 677.28,709.88 685.67,725.90 C693.91,743.27 703.75,766.60 709.13,782.74 C711.09,788.88 714.81,803.61 716.18,811.88 C717.01,816.91 719.34,838.71 719.60,843.22 C719.81,847.16 719.99,865.77 719.80,873.45 C719.27,884.30 718.46,892.86 716.96,903.52 C715.27,913.59 712.55,926.35 710.74,932.53 C708.70,939.44 704.06,951.45 699.84,961.00 C695.52,970.15 689.61,980.89 685.69,987.29 C681.78,993.45 674.76,1003.92 668.90,1011.46 C664.26,1017.31 655.14,1027.28 649.45,1032.02 C643.89,1036.63 634.00,1043.49 627.55,1047.22 C620.90,1051.05 605.07,1057.96 600.82,1059.54 C593.39,1062.28 582.19,1064.69 573.37,1065.37 C565.09,1065.86 548.12,1066.76 539.44,1067.17 C532.46,1067.50 524.37,1067.87 523.25,1067.93" fill="none" stroke="rgb(212, 239, 253)" stroke-width="107.75" stroke-opacity="1.00" stroke-linejoin="round"/>
<path d="M2528.03,1086.60 C2516.24,1091.64 2505.20,1096.05 2499.10,1097.07 C2493.97,1097.90 2472.68,1099.01 2468.58,1099.04 C2463.76,1099.07 2457.84,1098.63 2454.13,1097.90 C2449.09,1096.88 2437.68,1092.86 2428.16,1089.14 C2419.75,1085.78 2407.29,1079.25 2399.32,1074.21 C2389.63,1067.84 2357.92,1044.66 2348.47,1037.01 C2345.07,1034.18 2333.19,1023.12 2328.05,1017.75 C2319.83,1008.98 2311.15,999.06 2306.85,992.98 C2303.14,987.71 2295.51,974.15 2292.43,967.39 C2289.09,960.02 2284.67,946.62 2282.94,939.45 C2281.21,932.18 2278.95,918.38 2278.25,910.34 C2277.69,903.11 2277.60,889.82 2278.10,880.85 C2278.84,869.34 2283.25,840.40 2284.15,834.51 C2283.50,846.55 2281.62,881.51 2281.54,894.68 C2281.66,903.30 2282.85,921.13 2283.96,928.43 C2285.34,937.35 2289.28,952.21 2292.33,960.13 C2295.65,968.41 2301.68,981.63 2304.14,986.16 C2308.26,993.70 2316.87,1006.30 2323.16,1014.07 C2327.84,1019.79 2336.79,1030.67 2341.82,1036.19 C2349.21,1044.22 2355.07,1050.08 2362.49,1055.65 C2366.32,1058.51 2381.71,1068.25 2388.99,1072.61 C2396.89,1077.22 2412.72,1085.83 2418.12,1088.32 C2422.82,1090.43 2429.35,1092.92 2433.62,1093.97 C2437.96,1095.00 2443.10,1095.10 2447.69,1094.67 C2455.79,1093.86 2468.92,1091.18 2476.52,1089.47 C2484.41,1087.57 2498.97,1083.69 2506.09,1081.26 C2516.25,1077.60 2525.83,1073.36 2532.17,1069.10 C2537.64,1065.39 2547.58,1056.72 2556.35,1048.34 C2563.65,1041.12 2571.24,1032.51 2575.16,1026.76 C2578.38,1022.01 2586.99,1006.48 2588.95,1002.38 C2591.83,996.33 2596.83,982.61 2599.75,973.38 C2602.80,962.81 2605.48,951.07 2606.94,943.75 C2608.28,936.37 2610.01,923.21 2610.57,914.05 C2610.84,908.11 2610.83,888.44 2610.54,883.97 C2609.97,876.63 2608.27,862.01 2607.14,854.77 C2606.40,850.37 2601.84,831.40 2600.16,825.68 C2597.43,816.88 2592.76,805.06 2589.92,798.50 C2586.86,791.90 2580.18,778.63 2576.53,772.20 C2572.78,765.80 2564.69,752.76 2560.51,746.40 C2556.19,740.04 2546.56,727.27 2541.53,720.99 C2536.52,715.00 2526.64,703.83 2520.29,697.72 C2514.28,691.96 2502.44,682.39 2496.04,678.47 C2491.08,675.45 2475.23,667.68 2469.49,665.76 C2464.77,664.19 2451.11,660.94 2441.16,659.05 C2428.99,656.83 2417.26,655.70 2409.21,656.61 C2402.04,657.46 2389.69,661.27 2378.88,665.66 C2369.20,669.82 2358.35,675.26 2352.33,679.97 C2347.13,684.11 2334.46,696.34 2331.02,700.74 C2327.48,705.30 2319.43,719.22 2316.97,725.32 C2314.42,731.72 2309.89,746.48 2308.50,752.83 C2306.51,762.47 2304.64,774.29 2304.10,782.96 C2303.61,790.96 2304.14,828.42 2304.88,843.18 C2306.04,859.00 2308.56,892.82 2309.92,910.82 C2310.18,914.20 2310.62,920.10 2310.81,922.63" fill="none" stroke="rgb(212, 239, 253)" stroke-width="107.75" stroke-opacity="1.00" stroke-linejoin="round"/>
<path d="M1143.12,1260.94 C1143.12,1260.94 1137.94,1260.38 1137.94,1260.38 C1139.53,1259.61 1140.49,1259.02 1140.83,1258.61 C1141.49,1257.80 1142.47,1253.84 1143.77,1252.69 C1144.48,1252.07 1159.03,1250.02 1170.14,1246.65 C1182.54,1242.73 1215.10,1231.75 1231.41,1226.49 C1238.80,1224.28 1253.71,1220.24 1259.65,1219.05 C1266.87,1217.61 1275.45,1216.80 1282.69,1216.82 C1289.81,1216.84 1332.72,1213.10 1345.12,1211.86 C1377.89,1208.27 1448.27,1200.46 1485.88,1196.25 C1501.29,1194.66 1529.63,1191.87 1542.56,1190.67 C1556.04,1189.73 1579.60,1188.72 1585.95,1188.92 C1596.47,1189.38 1607.77,1189.88 1608.55,1189.92 C1597.99,1189.65 1574.64,1189.12 1547.69,1189.52 C1534.04,1189.96 1506.74,1191.00 1493.08,1191.59 C1477.57,1192.40 1445.33,1194.56 1427.81,1196.35 C1409.52,1198.59 1373.78,1204.06 1357.09,1206.82 C1340.57,1209.96 1306.61,1216.80 1289.17,1220.49 C1255.15,1228.31 1195.55,1241.97 1169.96,1247.82 C1156.90,1250.71 1142.43,1253.28 1137.79,1254.37 C1133.35,1255.46 1129.10,1257.24 1125.72,1260.38 C1125.24,1260.83 1124.63,1261.39 1123.90,1262.04 C1134.53,1265.07 1141.54,1266.85 1149.04,1268.01 C1154.11,1268.72 1165.69,1270.02 1174.80,1270.03 C1190.33,1269.81 1225.24,1267.85 1241.30,1266.81 C1259.39,1265.42 1292.58,1262.72 1307.68,1261.40 C1325.26,1259.61 1353.78,1255.87 1370.12,1252.72 C1383.66,1249.76 1410.01,1243.25 1423.87,1239.74 C1436.56,1236.84 1472.55,1230.30 1487.55,1227.98 C1504.18,1225.71 1537.46,1221.20 1554.11,1218.94 C1570.48,1216.48 1604.56,1210.97 1622.28,1207.93 C1637.00,1205.06 1670.16,1198.29 1678.88,1195.40 C1681.98,1194.35 1686.09,1192.96 1687.10,1192.63 C1679.08,1189.72 1674.06,1189.25 1665.31,1189.36 C1653.15,1189.71 1620.25,1191.54 1599.02,1193.31 C1567.34,1196.69 1501.37,1204.38 1467.09,1208.69 C1451.69,1210.88 1420.18,1215.61 1404.08,1218.16 C1387.53,1221.06 1358.71,1226.88 1344.99,1229.84 C1313.80,1237.34 1248.24,1253.72 1213.87,1262.59 C1199.15,1266.31 1165.08,1274.68 1161.42,1274.90 C1158.94,1275.05 1151.45,1274.17 1148.92,1274.21 C1145.90,1274.28 1142.08,1275.47 1141.06,1275.78 C1141.03,1277.02 1141.44,1278.90 1142.13,1279.52 C1145.72,1282.62 1183.71,1286.82 1204.73,1288.48 C1219.38,1289.55 1242.07,1291.16 1246.88,1290.58 C1254.17,1289.66 1270.36,1284.98 1278.54,1282.14 C1287.26,1278.93 1303.77,1272.46 1311.12,1269.58 C1313.77,1268.54 1317.48,1267.09 1318.55,1266.67" fill="none" stroke="rgb(212, 239, 253)" stroke-width="100.00" stroke-opacity="1.00" stroke-linejoin="round"/>
</g>
</svg>
