<?xml version="1.0" encoding="UTF-8" standalone="no"?>
<!DOCTYPE svg PUBLIC "-//W3C//DTD SVG 1.1//EN" "http://www.w3.org/Graphics/SVG/1.1/DTD/svg11.dtd">
<svg width="3000.00" height="3000.00" viewBox="0.00 0.00 3000.00 3000.00" xmlns="http://www.w3.org/2000/svg" xmlns:xlink="http://www.w3.org/1999/xlink">
<g stroke-linecap="round" transform="translate(0.00, -38.00)" id="レイヤー_9">
<path d="M482.85,511.94 C478.91,524.94 472.00,552.14 468.07,568.19 C460.04,602.25 443.97,670.68 435.94,705.04 C434.55,710.98 432.02,721.79 430.89,726.66 C435.35,715.69 446.58,688.32 454.25,671.03 C462.16,654.39 475.85,627.79 483.38,613.95 C491.39,599.87 508.93,571.48 518.13,557.67 C527.46,544.29 547.45,517.33 557.66,504.29 C562.39,498.44 571.49,487.40 575.86,482.22 C581.18,476.12 594.14,462.23 600.62,456.64 C603.37,454.28 618.94,442.91 619.42,442.66 C621.30,441.71 624.55,440.51 626.30,440.05 C621.87,448.24 618.51,454.89 615.06,464.38 C610.77,476.56 600.79,507.78 595.92,524.64 C591.48,541.07 582.59,577.65 580.63,587.50 C578.99,596.50 579.45,602.35 580.54,610.46 C581.88,609.94 585.41,608.69 585.66,608.59 C589.57,606.97 593.68,603.28 597.15,599.43 C607.19,587.89 656.00,525.50 657.61,523.65 C664.80,515.50 681.12,502.92 682.00,502.24 C682.24,504.24 682.93,510.11 682.47,513.35 C681.71,518.49 666.25,566.34 662.88,577.42 C661.95,580.73 659.65,589.21 659.58,589.66 C659.12,592.83 659.26,596.93 659.96,599.23 C660.07,599.61 661.38,602.97 661.85,604.30 C682.02,582.31 726.70,533.37 751.20,506.42 C756.79,500.35 766.99,489.46 771.60,484.65 C772.59,483.64 777.92,478.25 781.19,476.31 C783.18,475.14 789.06,473.00 790.49,472.44 C792.01,478.59 792.42,482.65 791.61,485.66 C788.72,496.02 782.29,517.53 773.86,541.55 C762.09,573.22 737.71,637.70 725.12,670.52 C720.74,681.87 707.13,716.44 705.65,722.47 C704.27,728.22 702.48,742.32 702.11,745.19 C717.39,721.58 752.33,667.80 771.98,637.63 C782.11,622.31 800.64,594.49 809.03,581.99 C819.76,566.39 825.44,559.85 828.56,556.99 C829.93,555.80 832.14,555.41 834.10,556.07 C834.62,556.25 835.41,556.70 836.46,557.41 C835.73,563.31 833.64,580.19 832.32,587.23 C830.96,594.43 826.53,611.25 824.24,618.75 C819.26,633.94 806.84,671.83 804.48,679.44 C801.85,688.70 798.69,702.30 797.99,709.87 C797.72,713.05 797.29,718.33 797.11,720.43 C814.00,697.03 852.10,644.00 873.32,614.37 C883.26,600.35 896.94,581.29 900.68,576.24 C901.47,575.21 905.60,569.81 908.22,568.37 C908.94,567.97 912.09,566.91 913.28,566.48 C912.81,570.70 911.37,583.66 909.86,589.58 C907.32,599.32 901.35,614.76 899.01,620.74 C892.92,635.29 879.32,666.85 871.82,683.85 C865.09,698.54 849.33,732.23 841.84,746.92 C836.07,757.63 830.05,767.49 826.89,772.45 C822.22,779.43 818.06,784.45 810.40,790.33 C806.99,785.62 805.38,782.37 805.28,779.41 C805.28,778.72 805.23,762.32 805.81,756.85 C807.32,742.67 814.90,705.10 817.95,690.62 C821.91,673.11 829.95,639.02 834.02,622.45 C835.95,615.28 840.76,597.90 841.57,595.24 C846.33,580.55 852.11,565.34 855.28,559.11 C857.77,554.27 865.34,542.37 869.31,536.97 C873.40,531.51 882.40,521.25 888.52,515.04 C895.31,508.36 905.96,499.04 911.99,494.63 C919.12,489.44 932.05,482.68 939.21,479.83 C944.48,477.74 961.72,472.45 969.13,470.26 C976.14,468.32 990.23,465.09 997.10,463.56 C1005.74,461.77 1018.12,460.04 1028.95,459.16 C1044.92,458.00 1107.42,458.21 1116.11,458.26 C1111.50,460.18 1099.71,464.95 1089.00,466.91 C1080.82,468.39 997.06,477.45 964.64,480.80 C933.88,483.79 894.74,487.48 886.36,488.19 C884.36,488.36 883.63,488.23 882.87,487.67 C907.11,485.54 968.25,480.23 1005.16,477.03 C1022.71,475.65 1056.84,473.08 1073.41,471.90 C1091.07,470.82 1124.40,468.99 1140.07,468.24 C1154.48,467.83 1184.18,467.39 1199.49,467.35 C1215.74,467.69 1248.93,468.72 1265.88,469.42 C1301.39,471.72 1350.72,475.09 1364.54,476.16 C1369.98,476.62 1383.02,477.77 1388.67,479.24 C1389.46,479.44 1395.78,481.27 1396.74,481.54 C1384.98,483.15 1351.25,487.82 1337.24,490.50 C1328.04,492.48 1312.56,496.30 1302.87,499.14 C1287.64,503.91 1256.94,515.80 1242.07,522.01 C1227.76,528.20 1198.99,541.59 1184.89,548.67 C1171.30,555.83 1137.29,575.01 1129.90,579.56 C1117.50,587.43 1092.01,603.96 1078.93,612.64 C1065.73,621.77 1039.51,640.78 1027.24,650.30 C1014.86,660.33 990.03,680.90 977.60,691.45 C965.65,701.92 942.60,722.55 931.49,732.70 C920.96,742.71 900.16,762.74 889.55,773.50 C878.38,785.31 855.14,811.25 845.36,822.70 C824.69,847.62 781.73,901.73 764.50,924.40 C760.86,929.33 749.62,945.06 743.33,954.42 C735.60,966.32 726.62,985.89 725.90,988.30 C724.20,994.18 724.24,1005.20 724.24,1006.26 C734.35,1000.53 740.74,996.14 746.22,989.89 C761.16,972.27 802.79,921.05 825.56,892.75 C847.45,865.09 889.70,811.31 910.07,785.20 C929.19,760.46 967.24,711.64 986.18,687.55 C997.49,673.43 1019.47,646.22 1030.15,633.13 C1040.09,621.30 1061.73,596.88 1066.10,592.44 C1075.34,583.04 1088.31,572.14 1095.93,567.22 C1100.64,564.18 1106.93,560.10 1108.50,559.07 C1108.18,561.39 1105.60,579.04 1103.11,586.86 C1101.57,591.61 1097.85,602.11 1095.68,607.86 C1092.45,616.11 1072.83,657.14 1066.39,670.12 C1051.82,698.55 1020.64,758.65 1004.03,790.33 C996.88,803.69 981.35,832.32 972.97,847.58 C962.73,865.58 946.90,891.68 939.81,902.96 C933.46,912.85 917.83,936.69 908.57,950.65 C903.50,957.94 894.68,969.51 891.74,972.81 C884.18,981.26 865.63,996.60 863.85,998.07 C861.37,996.33 855.26,992.26 853.52,989.85 C851.41,986.87 849.98,980.53 849.78,978.83 C848.65,968.94 851.97,942.56 855.26,922.08 C857.94,906.56 863.80,873.91 867.19,857.02 C870.78,840.36 878.54,808.16 882.69,792.58 C887.03,777.19 896.30,747.12 901.03,732.25 C905.90,717.88 916.81,687.06 922.85,670.61 C929.22,654.50 941.16,624.89 946.71,611.41 C951.26,600.62 962.91,575.50 965.10,571.83 C967.11,568.56 970.00,565.45 973.86,563.83 C974.41,563.60 975.10,563.30 975.91,562.93 C976.20,573.35 975.80,580.94 973.91,587.83 C968.23,606.74 953.39,654.09 944.22,682.53 C929.72,725.58 905.15,798.03 895.07,827.43 C884.11,859.16 860.74,926.56 848.35,962.22 C835.66,998.58 812.53,1064.94 802.07,1094.94 C793.93,1118.32 777.76,1164.99 772.90,1179.80 C772.46,1181.20 770.63,1186.93 770.59,1190.36 C781.00,1167.28 804.20,1116.34 817.00,1088.48 C832.11,1056.12 862.24,992.68 877.26,961.59 C892.19,931.74 920.76,875.41 934.39,848.92 C941.56,835.35 958.04,804.66 967.36,787.54 C974.97,774.25 992.63,744.08 994.38,741.46 C999.51,733.83 1008.42,723.46 1011.13,720.30 C1009.89,730.18 1008.45,737.56 1005.55,744.55 C995.66,767.36 971.36,822.26 956.94,854.35 C941.85,886.77 911.73,950.12 896.71,981.05 C881.65,1010.81 852.89,1066.79 839.20,1093.00 C832.55,1105.38 816.41,1134.80 806.91,1151.83 C798.57,1166.17 783.86,1190.36 776.77,1201.87 C757.00,1233.17 736.98,1260.28 733.76,1264.01 C730.63,1267.52 726.60,1271.13 722.90,1273.16 C720.92,1274.22 714.94,1276.52 711.65,1277.85 C710.36,1275.54 706.60,1268.88 705.55,1266.09 C704.25,1262.58 703.45,1256.40 703.35,1254.18 C703.14,1248.35 705.04,1234.34 706.96,1224.28 C709.50,1212.05 716.44,1181.89 721.29,1165.05 C726.86,1147.25 738.23,1115.09 744.80,1098.00 C765.23,1046.56 767.34,1040.25 769.67,1032.86 C769.67,1032.86 765.70,1030.31 765.70,1030.31 C753.21,1041.53 699.50,1094.20 672.76,1120.48 C661.38,1131.63 634.14,1158.21 629.14,1162.74 C623.54,1167.82 613.72,1174.79 605.80,1178.97 C602.84,1180.52 598.94,1182.56 597.99,1183.06 C597.99,1183.06 592.61,1177.23 592.61,1177.23 C594.84,1172.73 600.81,1160.84 606.59,1152.68 C609.98,1147.92 668.58,1075.95 690.03,1050.83 C694.60,1045.70 706.57,1032.43 712.87,1026.42 C721.28,1018.41 732.23,1011.55 736.94,1008.66 C737.77,1008.15 739.27,1007.22 739.95,1006.80 C737.45,1010.86 728.79,1024.98 726.94,1027.72 C721.99,1035.00 711.74,1047.47 705.00,1055.03 C697.05,1063.65 671.04,1089.27 659.36,1100.02 C653.67,1105.06 640.16,1116.45 633.23,1121.96 C626.46,1127.10 613.99,1135.94 608.11,1140.01 C600.07,1145.33 589.45,1151.46 583.74,1152.87 C583.23,1152.98 579.43,1153.55 578.61,1153.40 C575.47,1152.74 571.31,1148.77 570.22,1147.78 C570.58,1144.19 571.08,1138.94 572.35,1135.55 C574.47,1129.97 581.41,1118.09 587.52,1108.68 C600.70,1089.27 630.58,1051.80 632.08,1049.94 C606.51,1067.33 567.31,1093.62 551.46,1103.54 C540.22,1110.18 529.03,1116.12 523.30,1118.56 C521.14,1119.47 514.31,1121.96 510.42,1122.84 C506.15,1123.79 495.61,1122.96 494.69,1122.89 C498.26,1117.93 507.76,1104.72 513.56,1098.70 C519.08,1093.01 531.11,1083.16 538.19,1078.33 C554.61,1067.17 567.07,1062.91 577.93,1059.63 C577.93,1059.63 580.38,1063.71 580.38,1063.71 C576.52,1068.29 566.87,1079.58 558.39,1086.13 C553.47,1089.90 541.39,1097.40 531.04,1103.15 C523.74,1107.00 509.57,1113.90 502.28,1116.62 C495.80,1119.02 481.58,1122.68 475.22,1123.70 C468.25,1124.80 450.22,1126.07 443.73,1125.59 C439.61,1125.26 432.61,1123.79 428.94,1122.27 C425.85,1120.95 420.25,1117.22 417.16,1114.84 C414.00,1112.35 411.57,1108.71 409.12,1103.46 C409.29,1121.80 409.80,1172.29 410.15,1204.42 C410.90,1247.33 412.25,1315.91 412.86,1341.58 C413.57,1370.84 415.10,1432.96 415.93,1465.81 C416.86,1502.25 418.81,1578.22 419.84,1617.76 C420.86,1655.27 422.88,1726.91 423.87,1761.03 C424.83,1791.76 426.72,1849.83 427.64,1877.17 C429.15,1915.65 432.63,1992.19 434.61,2030.25 C436.47,2054.19 441.60,2098.89 444.66,2124.00 C448.66,2153.62 456.98,2213.45 461.30,2243.67 C466.45,2278.65 477.06,2350.40 482.53,2387.15 C487.07,2418.35 495.71,2478.57 499.81,2507.59 C505.35,2550.83 509.13,2590.20 510.07,2600.38 C510.06,2574.76 509.95,2512.22 509.85,2475.30 C509.67,2459.53 509.01,2422.77 508.53,2401.79 C507.27,2375.71 505.98,2348.80 505.93,2347.97 C504.14,2358.47 499.58,2386.10 496.81,2403.22 C491.77,2440.45 484.37,2505.92 480.84,2538.86 C479.22,2555.28 476.01,2590.76 476.12,2597.34 C476.26,2604.60 477.83,2614.48 478.77,2618.49 C479.53,2621.51 483.69,2626.84 486.26,2628.40 C487.76,2629.28 491.80,2630.63 493.60,2630.89 C495.87,2631.20 587.08,2629.07 625.65,2627.99 C640.97,2627.64 676.11,2626.98 690.09,2627.08 C696.87,2627.24 710.09,2628.40 715.73,2628.18 C723.23,2627.80 733.97,2623.34 737.76,2621.72 C737.22,2619.27 732.79,2600.36 729.62,2592.76 C720.58,2571.26 693.68,2510.19 679.08,2477.24 C664.63,2444.40 636.79,2380.97 623.40,2350.37 C618.96,2340.15 611.26,2321.91 607.99,2313.89 C607.24,2311.96 606.92,2311.55 606.53,2311.76 C610.78,2324.73 637.23,2390.82 649.75,2422.03 C665.06,2460.16 691.87,2527.11 703.36,2555.94 C705.51,2561.41 711.40,2576.36 711.42,2576.42 C712.28,2579.35 712.50,2584.16 712.58,2585.36 C706.61,2576.56 691.17,2553.63 681.68,2539.50 C662.47,2509.56 619.52,2441.61 608.60,2425.15 C602.94,2416.91 597.00,2409.65 588.59,2403.90 C587.75,2403.33 585.18,2401.53 584.27,2400.90 C586.57,2412.40 592.40,2441.26 595.93,2458.62 C599.63,2475.79 607.18,2509.64 611.02,2526.33 C615.73,2547.11 617.81,2559.02 617.56,2566.18 C617.45,2567.96 616.38,2569.59 614.74,2570.43 C614.31,2570.63 613.54,2570.85 612.45,2571.08 C610.21,2567.60 603.81,2557.61 599.76,2549.31 C594.08,2537.62 559.03,2453.46 544.45,2417.99 C539.27,2405.36 532.19,2388.08 530.28,2383.42 C531.74,2411.52 534.83,2476.16 536.47,2512.70 C536.65,2519.62 536.97,2536.96 536.90,2549.39 C536.67,2560.07 535.10,2571.19 534.03,2576.10 C533.71,2577.60 532.33,2583.04 530.90,2585.77 C530.01,2587.46 526.49,2591.72 525.67,2592.76 C524.19,2592.33 520.22,2591.30 519.36,2590.85 C516.23,2589.21 513.22,2584.60 511.96,2582.69 C508.78,2577.50 503.15,2565.84 499.22,2554.53 C495.90,2544.92 485.40,2508.23 481.19,2493.00 C476.48,2475.05 467.64,2440.93 463.51,2424.75 C451.89,2377.43 445.33,2344.01 443.63,2336.55 C441.69,2328.29 437.50,2317.66 435.95,2313.80 C435.16,2325.33 433.24,2354.69 432.11,2372.51 C430.53,2409.17 429.42,2463.53 429.17,2481.44 C435.73,2451.61 446.61,2403.46 450.80,2387.49 C452.83,2380.39 458.45,2362.33 462.66,2353.83 C464.94,2349.30 468.55,2344.54 471.28,2342.05 C473.61,2339.97 476.50,2337.72 478.80,2336.21 C479.88,2335.51 482.55,2334.43 484.19,2334.14 C485.90,2333.87 488.57,2334.48 490.59,2335.43 C495.13,2337.67 497.00,2339.04 501.26,2343.16 C507.74,2349.62 514.16,2358.43 518.32,2365.22 C521.06,2369.88 527.07,2380.62 530.62,2388.01 C537.35,2402.71 552.57,2439.47 558.45,2453.97 C571.89,2488.18 599.88,2559.33 605.76,2572.91 C606.01,2573.49 606.26,2574.06 606.51,2574.63 C606.51,2574.63 615.99,2564.60 615.99,2564.60" fill="none" stroke="rgb(65, 116, 181)" stroke-width="150.00" stroke-opacity="1.00" stroke-linejoin="round"/>
<path d="M1375.56,485.38 C1376.44,485.98 1411.66,488.76 1427.69,489.39 C1458.96,490.39 1522.55,492.34 1554.87,493.29 C1570.57,493.74 1602.77,494.63 1619.28,494.83 C1635.67,494.71 1668.07,493.54 1684.39,492.46 C1701.56,491.00 1735.82,487.05 1752.90,484.56 C1783.24,479.51 1848.82,468.79 1867.36,466.41 C1884.74,464.51 1955.93,464.36 1982.84,464.37 C2017.34,464.53 2091.86,464.98 2131.88,465.26 C2166.48,465.55 2228.64,466.12 2256.20,466.40 C2276.12,466.77 2311.66,467.66 2327.27,468.17 C2338.96,468.97 2364.97,470.98 2379.45,472.45 C2413.83,476.47 2462.98,482.57 2475.00,484.52 C2479.93,485.44 2483.98,486.82 2486.87,489.14 C2490.21,491.90 2497.47,503.39 2511.08,527.96 C2514.90,535.14 2519.61,546.37 2521.82,552.00 C2524.61,559.41 2528.23,573.31 2530.33,585.11 C2531.93,594.41 2536.08,626.19 2537.81,640.44 C2539.56,657.09 2542.92,690.96 2544.53,708.19 C2545.94,725.58 2548.40,759.69 2549.45,776.40 C2551.04,810.60 2553.61,872.95 2554.59,901.12 C2554.90,916.88 2555.29,950.89 2555.02,956.12 C2554.35,966.45 2550.19,1003.03 2548.37,1017.35 C2544.16,1046.97 2534.83,1111.79 2530.41,1146.65 C2528.61,1163.72 2525.35,1198.16 2523.89,1215.53 C2522.81,1233.23 2521.13,1268.35 2520.53,1285.77 C2520.17,1317.49 2519.56,1380.87 2519.30,1412.54 C2519.21,1434.24 2518.05,1454.27 2515.84,1466.59 C2514.32,1475.00 2510.59,1489.37 2506.81,1501.84 C2504.77,1508.55 2502.04,1517.57 2501.34,1519.87" fill="none" stroke="rgb(65, 116, 181)" stroke-width="150.00" stroke-opacity="1.00" stroke-linejoin="round"/>
<path d="M1289.33,875.09 C1290.22,886.37 1292.48,915.10 1293.85,932.55 C1294.97,950.70 1296.14,979.82 1296.18,998.14 C1295.97,1012.04 1294.80,1039.40 1293.68,1054.87 C1290.17,1091.95 1283.07,1150.81 1279.35,1179.98 C1277.07,1196.53 1272.30,1229.99 1269.81,1246.90 C1267.13,1263.70 1261.61,1297.18 1258.75,1313.87 C1255.60,1330.84 1249.03,1364.97 1245.60,1382.12 C1238.14,1416.31 1223.82,1480.23 1216.96,1509.97 C1214.13,1522.04 1206.83,1552.32 1202.36,1570.54 C1198.52,1585.32 1191.59,1608.92 1187.69,1621.63 C1184.93,1630.24 1172.61,1666.04 1166.94,1682.39 C1161.15,1698.50 1148.61,1732.41 1143.49,1744.49 C1138.84,1754.94 1134.28,1763.58 1129.44,1771.80 C1121.75,1784.31 1107.46,1802.76 1102.78,1807.66 C1099.38,1811.19 1095.21,1814.74 1091.37,1817.27 C1088.17,1819.35 1081.70,1822.60 1078.47,1823.73 C1074.47,1825.09 1068.90,1825.91 1064.55,1825.67 C1060.72,1825.43 1053.11,1823.67 1049.28,1822.10 C1043.79,1819.81 1031.68,1810.52 1026.22,1804.96 C1020.09,1798.67 1011.96,1787.58 1007.95,1781.48 C1003.05,1773.69 995.90,1761.05 991.96,1753.48 C987.48,1744.61 973.35,1709.30 969.10,1697.02 C963.91,1680.97 956.25,1652.98 952.59,1637.99 C949.09,1622.49 942.79,1590.28 940.47,1575.69 C938.38,1560.45 934.53,1529.28 932.77,1513.34 C931.44,1497.13 929.39,1465.74 928.66,1450.58 C928.27,1434.93 927.81,1403.44 927.74,1387.59 C927.98,1371.81 928.87,1340.46 929.51,1324.90 C930.44,1309.08 932.58,1277.33 933.78,1261.40 C935.25,1245.52 938.51,1214.01 940.30,1198.39 C942.36,1182.50 946.72,1150.76 949.03,1134.91 C951.58,1119.33 957.11,1087.96 960.10,1072.16 C963.38,1056.41 970.17,1025.29 973.69,1009.92 C977.36,995.27 985.57,964.84 990.10,949.04 C994.85,933.73 1004.62,904.61 1009.52,890.46 C1014.40,877.13 1027.09,846.02 1033.54,831.48 C1041.42,814.84 1053.14,792.49 1063.14,776.61 C1067.61,769.84 1076.62,757.00 1081.03,751.07 C1087.66,742.53 1095.39,733.55 1102.13,727.04 C1108.15,721.25 1120.94,711.25 1124.83,709.26 C1128.86,707.25 1136.35,705.40 1139.99,705.48 C1143.30,705.60 1149.78,707.22 1152.44,708.95 C1155.28,710.84 1160.27,715.29 1162.48,717.96 C1164.77,720.77 1169.00,727.83 1170.23,731.17 C1172.89,738.55 1175.63,749.37 1178.26,761.56 C1180.66,773.54 1181.77,782.93 1182.42,789.21 C1182.95,795.68 1183.86,808.15 1183.92,817.98 C1183.65,838.88 1181.57,865.46 1180.56,877.58 C1179.25,891.71 1176.29,921.96 1174.66,938.08 C1172.66,955.33 1168.24,990.09 1165.82,1007.59 C1162.98,1025.35 1157.22,1059.22 1154.29,1075.33 C1151.24,1090.53 1144.85,1121.13 1141.51,1136.53 C1137.87,1152.15 1130.33,1183.51 1126.43,1199.26 C1122.40,1214.80 1114.24,1245.63 1110.11,1260.92 C1105.87,1275.96 1096.86,1307.09 1092.09,1323.19 C1086.76,1340.31 1075.95,1374.24 1070.46,1391.05 C1059.44,1422.87 1039.48,1479.63 1030.53,1504.58 C1027.10,1513.96 1012.76,1549.23 1006.15,1563.59 C998.88,1578.70 982.67,1608.17 978.80,1613.27 C978.22,1614.00 975.91,1616.87 975.36,1617.31 C973.32,1618.86 969.71,1620.24 967.17,1620.40 C966.98,1620.41 962.76,1620.38 961.21,1620.43 C960.49,1614.85 958.53,1600.07 958.59,1591.16 C958.64,1585.04 961.86,1557.09 963.69,1544.27 C964.80,1537.27 967.98,1520.69 969.78,1511.84 C974.49,1491.14 983.77,1454.37 987.21,1441.29 C995.72,1410.78 1014.46,1345.42 1024.70,1310.56 C1033.97,1279.90 1053.65,1216.72 1064.05,1184.19 C1074.73,1153.29 1094.09,1102.47 1104.18,1076.55 C1116.19,1047.33 1140.66,988.89 1153.13,959.65 C1159.57,945.32 1172.62,916.87 1179.22,902.74 C1185.72,889.18 1199.88,861.30 1207.70,846.75 C1215.82,832.20 1232.51,804.08 1241.19,789.71 C1250.57,774.86 1268.31,747.35 1276.68,734.68 C1280.36,729.38 1289.78,715.98 1294.93,709.45 C1301.95,700.55 1311.54,691.06 1316.62,687.59 C1318.97,685.99 1324.41,683.05 1326.02,682.47 C1329.87,681.12 1337.69,680.07 1342.19,680.30 C1345.71,680.54 1351.57,680.91 1353.90,681.04 C1356.35,686.04 1363.40,700.28 1365.22,707.64 C1366.96,714.77 1367.99,730.23 1367.87,737.22 C1367.75,743.31 1366.39,759.94 1365.51,768.18 C1362.76,789.76 1358.43,815.25 1355.66,829.82 C1352.39,845.35 1345.33,877.19 1341.54,893.51 C1337.68,908.61 1329.82,938.29 1325.82,952.87 C1321.45,968.06 1312.43,998.67 1307.78,1014.09 C1298.02,1044.98 1277.47,1104.73 1266.78,1135.01 C1261.14,1150.16 1249.71,1180.23 1243.92,1195.16 C1237.98,1209.80 1225.85,1239.14 1219.68,1253.84 C1213.33,1268.48 1200.57,1297.41 1194.16,1311.70 C1187.57,1325.85 1173.91,1354.54 1166.83,1369.09 C1159.62,1383.36 1145.10,1411.55 1137.77,1425.46 C1130.34,1438.86 1115.05,1465.84 1106.04,1480.81 C1096.83,1495.42 1078.61,1523.61 1069.59,1537.18 C1062.14,1548.09 1042.64,1576.27 1034.24,1585.78 C1019.11,1602.48 1003.44,1619.03 996.13,1624.64 C991.13,1628.46 974.79,1637.71 968.32,1640.93 C964.07,1643.03 956.64,1646.01 953.00,1647.08 C949.67,1648.04 942.35,1649.33 938.77,1649.17 C935.01,1648.96 928.09,1647.25 924.89,1645.72 C921.90,1644.26 915.66,1639.82 912.88,1637.24 C910.10,1634.63 904.97,1628.55 903.19,1625.69 C899.61,1619.83 893.86,1607.47 891.25,1600.02 C888.65,1592.55 884.13,1574.90 882.75,1566.84 C881.25,1558.00 878.64,1524.15 878.29,1508.11 C878.27,1491.67 879.07,1466.16 880.86,1444.63 C882.40,1429.30 886.38,1397.40 888.79,1381.11 C891.48,1364.65 897.52,1333.27 900.60,1318.51 C904.13,1303.32 911.61,1272.62 915.55,1257.11 C919.83,1241.61 928.65,1210.61 933.27,1195.87 C938.16,1181.00 948.29,1151.09 953.54,1136.06 C959.05,1121.13 970.30,1091.55 976.04,1076.91 C982.07,1062.32 994.95,1033.04 1001.50,1018.45 C1008.34,1004.00 1022.15,975.61 1029.11,961.66 C1036.28,948.11 1051.52,920.40 1059.59,906.24 C1067.86,892.59 1084.52,865.76 1093.00,852.97 C1101.54,840.55 1120.78,814.61 1131.59,801.13 C1142.58,788.07 1162.88,765.31 1172.26,754.97 C1178.44,748.39 1190.00,737.13 1195.22,732.92 C1204.97,725.12 1232.76,706.49 1239.30,703.14 C1246.05,699.71 1261.50,694.20 1269.40,691.70 C1280.28,688.47 1293.52,685.87 1300.60,685.71 C1304.21,685.67 1311.78,687.19 1315.16,688.71 C1318.51,690.26 1323.59,694.42 1326.42,697.56 C1328.89,700.34 1333.70,707.17 1335.32,710.17 C1337.62,714.49 1342.62,729.09 1344.30,736.38 C1346.01,743.91 1348.03,761.90 1347.95,768.76 C1347.81,775.44 1346.99,789.55 1346.31,796.97 C1345.45,804.63 1343.19,820.50 1341.78,828.65 C1338.50,845.87 1330.85,874.58 1326.41,889.47 C1321.48,904.83 1310.43,936.09 1304.34,951.89 C1301.13,959.94 1285.89,993.99 1279.39,1008.07 C1272.33,1022.35 1257.84,1050.79 1250.40,1064.97 C1245.30,1074.32 1227.12,1105.33 1219.11,1118.70 C1210.70,1132.07 1193.66,1158.52 1185.04,1171.60 C1176.26,1184.41 1157.79,1209.92 1148.41,1222.62 C1138.74,1235.10 1119.16,1259.76 1109.09,1271.70 C1098.87,1283.38 1076.16,1307.60 1063.91,1319.84 C1051.39,1331.85 1027.69,1353.51 1016.61,1363.51 C1011.94,1367.60 1003.67,1374.83 992.01,1384.02 C985.77,1388.79 965.68,1401.66 945.87,1413.75 C939.51,1417.47 925.03,1423.24 915.43,1425.87 C907.70,1427.81 888.53,1431.98 881.93,1432.63 C877.82,1433.03 870.47,1433.12 866.50,1432.83 C862.70,1432.52 854.91,1430.44 851.34,1428.84 C847.76,1427.21 841.55,1422.97 838.55,1420.13 C835.72,1417.41 830.69,1411.30 828.48,1407.89 C825.93,1403.91 823.50,1398.85 822.01,1394.65 C819.83,1388.41 816.83,1374.44 815.91,1366.27 C815.03,1358.39 814.38,1340.61 814.70,1333.39 C814.83,1330.52 816.74,1312.83 817.75,1305.70 C818.93,1298.44 821.47,1285.03 823.73,1275.54 C829.06,1255.55 836.54,1234.75 844.90,1214.56 C851.08,1200.44 865.09,1170.65 872.33,1155.59 C879.35,1141.38 893.19,1113.66 900.52,1099.78 C907.68,1086.54 924.25,1056.42 929.13,1048.21 C933.20,1041.66 942.22,1027.93 947.19,1020.75 C960.92,1001.75 977.60,980.84 987.00,969.24 C997.63,956.74 1020.05,930.89 1031.86,917.55 C1043.36,904.81 1065.32,880.69 1075.78,869.31 C1085.90,858.57 1109.86,833.78 1122.41,821.42 C1133.68,810.75 1154.45,792.41 1165.62,783.14 C1179.83,771.79 1201.54,755.85 1213.96,746.87 C1227.27,737.59 1254.57,719.60 1268.04,711.43 C1274.71,707.63 1285.55,701.53 1296.69,695.94 C1304.67,692.11 1320.62,684.98 1328.58,681.69 C1344.26,675.65 1377.88,663.59 1384.99,661.64 C1396.03,658.62 1408.97,657.10 1415.16,656.44 C1421.11,655.73 1440.84,654.05 1441.62,654.03 C1449.94,653.79 1462.95,656.20 1472.90,659.10 C1480.29,661.41 1497.28,667.27 1504.24,670.72 C1508.01,672.61 1514.94,676.74 1518.39,679.15 C1523.90,683.05 1534.61,694.24 1538.93,700.31 C1542.88,705.91 1550.51,720.09 1553.68,727.46 C1557.24,735.78 1560.92,747.13 1563.21,756.30 C1564.82,763.37 1567.59,778.17 1568.74,785.90 C1569.73,793.80 1571.24,810.03 1571.75,818.36 C1572.42,834.46 1571.26,864.75 1570.13,880.12 C1568.61,895.95 1564.52,928.32 1561.96,944.77 C1560.15,955.46 1552.84,989.88 1549.47,1004.84 C1545.62,1020.18 1537.52,1050.85 1533.27,1066.18 C1528.76,1081.47 1518.97,1111.46 1513.92,1126.46 C1508.47,1141.60 1497.29,1171.74 1491.55,1186.74 C1485.60,1201.44 1473.24,1230.78 1466.85,1245.44 C1460.15,1259.96 1446.46,1288.80 1439.47,1303.12 C1432.16,1317.11 1417.32,1344.84 1408.60,1359.95 C1399.63,1374.95 1381.17,1404.19 1371.93,1418.52 C1364.10,1430.31 1347.04,1455.71 1336.29,1469.72 C1335.24,1471.04 1312.03,1498.58 1302.39,1509.01 C1297.45,1514.34 1286.50,1524.04 1278.15,1530.39 C1259.68,1543.84 1243.37,1553.37 1236.95,1556.05 C1232.92,1557.69 1226.69,1559.45 1222.55,1559.88 C1218.64,1560.26 1211.49,1559.53 1208.16,1558.42 C1204.93,1557.30 1198.91,1553.76 1196.20,1551.39 C1193.20,1548.72 1189.80,1544.31 1187.79,1540.73 C1184.65,1535.07 1180.36,1522.74 1177.76,1512.47 C1175.94,1504.57 1172.98,1489.02 1172.28,1481.80 C1171.72,1474.74 1171.10,1460.49 1171.04,1453.28 C1171.09,1446.93 1172.29,1430.89 1173.58,1420.01 C1174.54,1412.64 1181.33,1378.98 1184.77,1364.19 C1188.66,1348.66 1197.87,1315.54 1202.79,1298.55 C1207.40,1284.39 1217.17,1255.22 1222.33,1240.21 C1228.00,1224.55 1239.57,1193.71 1245.48,1178.53 C1251.58,1164.00 1264.48,1134.64 1271.41,1120.10 C1278.50,1105.86 1293.19,1078.32 1300.64,1064.73 C1308.36,1051.42 1326.64,1020.58 1332.23,1011.82 C1340.92,998.64 1358.68,972.38 1367.75,959.30 C1377.06,946.39 1395.74,921.63 1405.13,909.76 C1412.66,900.47 1436.86,873.03 1447.98,861.14 C1459.20,849.61 1481.91,827.97 1493.39,817.89 C1501.05,811.44 1512.35,802.67 1519.27,797.53 C1533.24,787.54 1560.63,770.43 1573.72,762.47 C1579.19,759.30 1591.90,752.06 1599.37,748.56 C1607.91,744.56 1619.52,740.97 1625.09,739.25 C1630.38,737.56 1649.77,732.22 1650.58,732.04 C1658.76,730.20 1671.37,729.74 1682.64,730.21 C1690.42,730.72 1708.39,732.33 1715.97,733.82 C1723.90,735.41 1738.57,740.26 1746.16,744.51 C1753.15,748.46 1764.95,758.02 1770.88,764.20 C1776.24,769.81 1785.23,781.49 1789.57,789.00 C1793.31,795.52 1799.89,809.72 1802.74,817.42 C1805.55,825.02 1810.48,842.27 1811.63,848.75 C1812.85,856.13 1814.74,871.40 1815.41,879.29 C1815.89,887.35 1816.28,903.72 1816.20,912.00 C1815.79,924.39 1815.18,932.24 1813.82,943.87 C1811.74,959.23 1805.54,991.04 1801.51,1006.90 C1797.32,1022.32 1787.13,1051.80 1781.47,1066.42 C1778.47,1073.74 1772.04,1088.33 1768.60,1095.58 C1765.02,1102.81 1757.96,1116.28 1753.35,1124.29 C1744.89,1138.47 1725.72,1166.83 1716.43,1179.85 C1703.49,1197.53 1689.45,1215.14 1677.00,1226.89 C1674.65,1229.13 1660.53,1242.09 1658.13,1244.20 C1650.81,1250.71 1640.50,1258.85 1632.91,1263.88 C1631.25,1264.98 1614.75,1274.72 1608.02,1278.60 C1597.10,1284.70 1585.09,1290.71 1577.38,1293.76 C1568.79,1297.12 1555.13,1300.85 1546.61,1302.11 C1538.91,1303.22 1523.74,1303.75 1515.77,1303.21 C1508.18,1302.68 1492.49,1300.01 1486.60,1298.25 C1480.19,1296.31 1465.39,1289.59 1458.72,1285.58 C1451.86,1281.42 1439.88,1272.06 1434.68,1266.76 C1428.77,1260.70 1421.23,1249.35 1418.12,1243.14 C1414.87,1236.61 1410.05,1223.06 1407.87,1214.89 C1405.87,1207.36 1402.50,1190.06 1401.90,1183.89 C1401.27,1176.72 1400.46,1161.92 1400.29,1154.28 C1400.27,1146.47 1400.71,1130.50 1401.18,1122.41 C1401.82,1114.26 1404.04,1094.31 1404.79,1089.99 C1407.44,1075.34 1414.68,1044.89 1418.97,1029.36 C1423.59,1013.95 1432.56,986.96 1439.25,969.70 C1445.01,955.66 1458.85,924.64 1464.67,913.21 C1472.44,898.54 1486.38,875.01 1498.40,856.64 C1507.59,843.15 1527.49,815.55 1537.63,801.77 C1546.61,789.89 1566.02,764.54 1575.48,753.03 C1586.96,739.41 1609.71,715.78 1613.86,711.78 C1625.29,701.15 1652.78,676.76 1660.35,671.31 C1670.13,664.42 1698.38,646.69 1709.92,640.31 C1717.73,636.08 1731.93,630.42 1739.37,628.56 C1745.78,627.00 1760.26,623.93 1768.34,622.42 C1778.04,620.73 1792.92,619.35 1800.42,619.46 C1808.35,619.61 1823.39,622.44 1830.53,625.03 C1837.11,627.45 1850.82,634.97 1856.97,639.37 C1863.99,644.42 1873.75,654.12 1878.22,659.51 C1882.94,665.21 1891.65,677.94 1895.70,684.91 C1899.67,691.77 1906.60,706.06 1909.18,712.84 C1911.57,719.50 1915.97,733.33 1917.97,740.50 C1919.84,747.86 1923.12,763.39 1924.53,771.60 C1925.78,780.12 1927.41,793.63 1928.09,803.67 C1928.78,817.92 1929.22,848.58 1928.98,864.78 C1928.49,881.01 1926.56,916.93 1925.47,929.09 C1923.81,944.53 1920.18,975.53 1917.95,991.17 C1915.40,1006.85 1907.17,1044.20 1904.34,1054.33 C1899.62,1070.24 1888.72,1102.48 1882.54,1118.80 C1876.50,1133.96 1865.21,1161.80 1859.96,1174.48 C1853.89,1188.68 1840.28,1215.71 1832.10,1230.24 C1827.12,1238.83 1805.64,1271.86 1798.64,1281.52 C1792.17,1290.32 1764.86,1319.49 1757.39,1326.59 C1749.91,1333.53 1740.38,1341.25 1732.48,1346.42 C1730.63,1347.62 1714.46,1356.85 1707.76,1360.57 C1698.00,1365.79 1685.02,1371.54 1677.30,1373.95 C1668.72,1376.60 1654.30,1378.69 1646.97,1378.87 C1639.38,1379.02 1624.35,1377.52 1616.40,1375.94 C1608.81,1374.41 1592.86,1369.64 1586.90,1367.01 C1579.72,1363.82 1566.46,1356.55 1559.79,1352.16 C1552.91,1347.62 1540.48,1337.83 1534.76,1332.45 C1528.15,1326.20 1519.86,1316.46 1514.77,1309.05 C1510.45,1302.72 1503.37,1290.28 1499.32,1281.91 C1495.94,1274.62 1489.62,1259.54 1486.66,1251.76 C1482.54,1240.33 1473.98,1207.36 1470.79,1191.66 C1467.84,1175.78 1463.76,1143.72 1462.92,1128.16 C1462.40,1112.81 1462.52,1081.27 1463.14,1065.33 C1464.13,1049.43 1466.35,1024.82 1469.59,1002.60 C1472.19,987.05 1478.40,955.83 1481.93,940.46 C1487.28,919.08 1494.49,895.09 1499.41,880.05 C1504.63,865.12 1516.02,835.80 1522.22,821.51 C1529.87,805.09 1543.08,780.30 1553.53,762.53 C1561.91,749.14 1581.32,718.80 1587.02,711.22 C1592.80,703.54 1615.98,678.64 1623.77,671.33 C1629.94,665.58 1640.28,658.49 1650.21,652.61 C1657.23,648.65 1673.07,640.20 1680.40,637.27 C1684.16,635.77 1692.26,633.14 1694.99,632.51 C1698.51,631.72 1706.84,630.75 1710.63,630.71 C1717.72,630.66 1732.38,633.69 1739.04,636.24 C1745.75,638.85 1758.30,646.86 1764.26,652.05 C1770.10,657.18 1781.98,670.41 1786.29,676.59 C1789.50,681.22 1797.70,695.84 1801.13,703.07 C1803.84,708.91 1810.63,725.58 1813.43,733.37 C1814.96,737.81 1819.82,755.94 1821.61,763.65 C1823.27,771.52 1826.14,787.52 1827.33,795.56 C1828.86,807.52 1829.56,815.58 1830.12,827.34 C1830.35,835.25 1830.38,851.25 1830.17,859.29 C1829.81,867.27 1828.29,886.89 1827.79,890.88 C1827.29,894.88 1823.91,914.04 1822.29,921.73 C1820.51,929.41 1816.52,944.46 1814.32,951.77 C1810.82,962.49 1807.94,970.08 1803.19,980.87 C1799.07,989.59 1792.34,1002.33 1788.39,1008.97 C1784.39,1015.56 1775.34,1028.38 1770.71,1033.71 C1765.47,1039.69 1754.24,1050.52 1748.32,1055.28 C1742.44,1059.99 1730.03,1068.08 1723.18,1071.19 C1715.94,1074.44 1700.88,1079.04 1693.24,1080.36 C1684.52,1081.85 1671.71,1082.03 1662.97,1080.79 C1655.31,1079.68 1640.16,1075.51 1632.90,1072.47 C1625.84,1069.49 1612.82,1061.30 1606.58,1056.38 C1600.17,1051.30 1588.71,1040.10 1583.25,1033.57 C1579.21,1028.70 1570.54,1015.30 1566.88,1008.62 C1563.20,1001.89 1556.63,987.62 1553.79,980.18 C1550.53,971.63 1546.78,958.11 1544.99,950.75 C1543.37,943.22 1540.62,927.69 1539.50,919.81 C1538.54,911.91 1536.89,892.82 1536.77,888.21 C1536.50,872.79 1538.04,841.16 1539.72,825.42 C1541.63,809.95 1547.74,779.51 1551.68,764.34 C1553.73,756.93 1558.10,742.44 1560.41,735.38 C1561.82,731.16 1568.90,713.36 1572.03,706.13 C1575.29,699.01 1582.07,685.29 1585.57,678.80 C1590.95,669.36 1596.86,660.21 1602.53,652.89 C1607.61,646.35 1618.14,634.90 1623.49,630.18 C1625.78,628.17 1631.65,623.54 1634.96,621.56 C1638.48,619.48 1645.36,616.21 1648.90,614.93 C1652.46,613.67 1659.56,611.94 1663.08,611.49 C1666.37,611.09 1673.54,611.02 1676.98,611.67 C1680.65,612.38 1687.34,614.45 1690.77,615.93 C1697.64,618.93 1711.59,628.41 1716.49,633.37 C1721.81,638.85 1730.32,649.22 1734.93,655.81 C1738.82,661.40 1748.86,677.93 1751.47,683.07 C1757.76,695.73 1769.55,724.10 1775.04,738.93 C1779.08,750.52 1788.62,783.22 1792.59,798.53 C1796.29,813.89 1802.75,844.71 1805.52,860.32 C1808.05,876.09 1812.31,907.16 1814.00,922.58 C1815.39,938.80 1817.21,970.54 1817.64,985.60 C1817.83,1000.61 1816.28,1033.87 1814.71,1048.53 C1812.39,1066.80 1806.98,1087.74 1804.55,1093.40 C1802.98,1096.99 1799.14,1103.14 1796.32,1105.67 C1794.61,1107.19 1789.56,1110.31 1786.31,1112.39 C1783.07,1110.35 1778.00,1107.28 1776.30,1105.81 C1773.43,1103.29 1769.58,1097.23 1767.97,1093.48 C1765.48,1087.51 1761.46,1070.25 1760.31,1061.28 C1759.88,1057.80 1758.81,1039.87 1758.64,1032.01 C1758.64,1023.95 1759.23,1004.02 1759.58,999.69 C1760.25,992.60 1761.82,978.15 1762.71,970.79 C1763.81,963.18 1766.70,947.16 1768.49,938.75 C1771.16,927.27 1780.91,894.07 1786.07,878.45 C1791.59,862.80 1802.21,835.24 1810.06,817.34 C1816.85,802.66 1831.30,773.75 1838.57,760.27 C1842.19,753.92 1848.14,743.59 1854.44,733.72 C1863.53,720.02 1881.91,696.08 1891.19,685.23 C1896.04,679.70 1907.52,668.06 1913.45,662.40 C1921.62,654.94 1931.43,646.68 1937.28,642.40 C1944.36,637.25 1957.20,630.25 1964.39,627.46 C1971.88,624.59 1986.76,621.53 1992.16,621.77 C1995.25,621.93 2003.12,623.70 2006.60,625.03 C2010.10,626.40 2016.71,630.10 2019.79,632.44 C2022.82,634.77 2028.39,640.36 2030.34,643.14 C2034.29,648.87 2040.50,661.09 2043.28,668.56 C2046.01,675.98 2050.03,691.17 2051.41,699.28 C2053.48,712.96 2055.76,743.83 2056.07,760.45 C2056.12,773.17 2054.56,806.58 2053.40,822.29 C2051.86,838.52 2048.43,871.34 2046.42,886.65 C2044.18,901.89 2039.33,932.91 2036.73,948.69 C2033.85,964.58 2027.87,995.85 2024.78,1011.23 C2021.44,1026.50 2014.51,1057.18 2010.92,1072.60 C2007.16,1087.76 1999.36,1118.06 1995.31,1133.21 C1990.96,1148.41 1982.09,1178.61 1977.57,1193.61 C1973.01,1208.00 1963.30,1237.59 1958.15,1252.78 C1952.69,1267.91 1941.80,1297.37 1936.35,1311.70 C1930.99,1325.27 1918.25,1355.09 1911.74,1369.90 C1905.28,1383.70 1892.10,1410.09 1883.91,1424.45 C1878.05,1434.30 1871.70,1444.07 1867.49,1449.32 C1865.78,1451.43 1860.78,1457.01 1857.43,1459.98 C1850.91,1465.69 1836.65,1472.82 1831.30,1475.51 C1829.13,1474.47 1820.75,1470.54 1820.36,1470.36 C1816.20,1468.27 1809.84,1462.74 1806.91,1458.64 C1804.00,1454.48 1798.74,1440.95 1796.65,1432.30 C1794.69,1424.12 1791.93,1407.58 1790.98,1398.81 C1789.63,1384.61 1788.49,1352.23 1788.52,1335.08 C1788.79,1321.84 1790.93,1288.43 1792.31,1272.79 C1794.08,1256.68 1798.64,1219.25 1800.33,1208.44 C1802.97,1193.06 1808.67,1161.83 1811.74,1145.99 C1815.17,1130.17 1822.27,1098.61 1826.07,1083.52 C1830.13,1068.39 1838.60,1038.13 1843.01,1022.99 C1847.77,1007.96 1858.07,977.94 1863.97,962.26 C1870.15,946.57 1882.98,916.19 1889.32,901.51 C1897.91,882.16 1909.06,859.19 1915.74,848.06 C1918.81,842.88 1923.06,835.68 1928.83,826.44 C1934.98,816.47 1941.57,806.84 1947.57,799.71 C1949.23,797.75 1962.34,783.92 1968.21,778.02 C1975.32,771.04 1985.76,762.30 1991.82,758.26 C1994.95,756.21 2002.78,752.63 2006.76,751.56 C2010.70,750.54 2017.92,750.15 2021.71,750.63 C2025.28,751.11 2032.58,753.41 2035.31,754.90 C2037.39,756.07 2043.22,760.78 2045.72,763.35 C2050.71,768.54 2059.78,782.47 2063.73,791.01 C2066.04,796.04 2070.55,809.76 2072.87,818.03 C2074.71,825.26 2078.08,840.67 2079.60,848.74 C2082.82,867.94 2085.37,895.80 2086.35,910.88 C2087.08,926.62 2087.77,959.40 2087.72,976.29 C2087.55,987.28 2085.89,1022.03 2085.01,1037.25 C2083.78,1053.00 2080.97,1084.69 2079.40,1100.61 C2077.57,1116.64 2073.27,1147.54 2071.00,1163.11 C2068.41,1178.98 2062.94,1210.66 2060.07,1226.47 C2056.95,1242.07 2050.40,1273.01 2046.96,1288.35 C2043.25,1303.65 2035.54,1334.14 2031.55,1349.34 C2027.23,1364.34 2018.34,1394.17 2012.96,1410.57 C2007.24,1426.93 1995.51,1459.25 1989.51,1475.21 C1984.30,1488.60 1972.82,1517.65 1965.86,1533.11 C1963.73,1537.65 1947.94,1568.67 1942.21,1579.97 C1938.91,1586.64 1930.06,1600.38 1924.76,1607.26 C1920.41,1612.84 1910.16,1625.31 1904.70,1631.82 C1897.34,1640.36 1886.54,1651.09 1880.61,1655.67 C1877.93,1657.72 1871.31,1662.12 1867.34,1664.11 C1863.04,1666.25 1854.14,1669.04 1849.85,1669.60 C1846.54,1670.00 1828.82,1669.73 1823.73,1669.66 C1821.39,1665.39 1815.55,1654.73 1812.05,1648.35 C1807.33,1639.78 1800.81,1623.16 1798.25,1613.16 C1796.48,1606.15 1794.07,1590.23 1793.29,1582.50 C1792.03,1567.06 1791.84,1532.27 1792.20,1516.21 C1792.99,1498.43 1795.64,1471.25 1797.74,1457.60 C1800.20,1443.88 1809.30,1401.35 1811.51,1392.56 C1819.07,1363.82 1835.88,1301.55 1845.47,1268.64 C1850.30,1253.12 1860.00,1222.78 1865.44,1207.35 C1870.96,1192.59 1882.09,1163.76 1887.75,1150.13 C1893.76,1136.50 1906.54,1108.40 1913.33,1093.93 C1920.56,1079.31 1934.66,1051.47 1941.52,1038.26 C1948.95,1024.38 1964.37,995.98 1972.36,981.44 C1980.56,967.06 1996.88,939.09 2005.00,925.50 C2013.04,912.71 2030.89,885.14 2041.28,870.07 C2051.64,855.60 2072.14,828.77 2082.30,815.82 C2091.36,804.58 2108.19,783.89 2115.95,774.45 C2132.71,755.21 2149.80,737.28 2158.53,728.31 C2162.60,724.12 2173.05,714.07 2178.22,709.09 C2184.10,703.42 2197.14,692.91 2202.78,689.38 C2209.19,685.45 2227.10,675.36 2231.62,673.08 C2239.42,669.16 2254.99,663.24 2260.98,662.39 C2265.30,661.81 2273.11,662.05 2276.62,662.86 C2280.18,663.74 2286.34,667.04 2289.13,669.57 C2292.28,672.51 2295.19,676.85 2296.99,680.84 C2299.49,686.51 2303.05,699.52 2304.89,709.55 C2308.62,731.42 2310.05,747.20 2310.57,765.93 C2310.59,771.85 2310.50,786.31 2310.28,790.27 C2309.74,797.79 2307.81,815.84 2306.42,826.38 C2302.28,853.73 2290.60,915.84 2284.91,945.01 C2277.82,978.85 2262.99,1046.67 2255.25,1080.65 C2247.10,1113.50 2230.48,1177.98 2222.00,1209.61 C2213.01,1241.05 2195.08,1302.77 2186.13,1333.05 C2177.55,1361.64 2158.46,1424.29 2147.96,1458.36 C2137.74,1490.69 2118.46,1550.73 2109.40,1578.44 C2105.41,1590.19 2094.24,1621.73 2087.07,1641.52 C2080.59,1658.00 2067.15,1690.31 2066.83,1691.09 C2067.93,1679.76 2070.77,1650.87 2075.39,1629.32 C2077.05,1621.62 2096.40,1550.39 2105.18,1519.26 C2115.88,1484.16 2136.25,1419.36 2145.91,1389.65 C2155.98,1360.02 2177.00,1299.47 2187.96,1268.54 C2193.67,1253.21 2205.21,1222.67 2211.05,1207.47 C2217.02,1192.41 2229.74,1161.02 2236.49,1144.70 C2243.50,1128.32 2257.71,1095.70 2264.90,1079.47 C2279.46,1048.11 2306.27,991.27 2318.53,965.80 C2327.45,947.78 2341.54,921.88 2348.56,910.25 C2356.74,897.28 2368.69,882.71 2371.16,880.43 C2374.57,877.31 2382.55,871.68 2386.30,869.74 C2387.13,869.32 2399.47,863.45 2400.39,862.99 C2402.63,867.34 2409.03,879.66 2410.54,886.92 C2411.95,893.86 2412.28,908.39 2411.94,916.10 C2411.22,927.19 2406.47,964.36 2403.67,982.28 C2401.13,995.87 2395.53,1024.15 2392.48,1038.84 C2384.90,1071.95 2370.92,1130.57 2364.52,1156.07 C2361.06,1169.43 2353.78,1197.16 2349.96,1211.53 C2339.64,1247.29 2319.78,1314.12 2310.24,1345.19 C2301.11,1374.01 2281.61,1434.92 2271.25,1467.01 C2260.24,1500.40 2238.65,1564.96 2228.07,1596.14 C2217.92,1625.04 2194.27,1690.51 2180.76,1727.08 C2168.05,1759.41 2143.99,1819.37 2132.65,1846.99 C2123.35,1869.36 2098.02,1928.87 2085.93,1955.60 C2080.77,1966.56 2071.81,1985.44 2062.18,2004.69 C2052.39,2024.11 2042.19,2041.94 2038.55,2046.81 C2034.46,2052.25 2025.04,2060.68 2023.30,2062.25 C2022.32,2061.32 2019.54,2058.86 2019.46,2058.79 C2016.62,2055.96 2015.75,2052.28 2015.71,2048.26 C2015.86,2038.88 2018.10,2010.78 2020.16,1993.08 C2023.03,1972.59 2028.40,1939.60 2030.60,1926.80 C2036.20,1897.04 2048.61,1833.96 2055.41,1800.64 C2062.73,1767.23 2077.64,1701.18 2085.23,1668.55 C2093.13,1636.02 2108.04,1575.63 2115.05,1547.76 C2120.05,1528.77 2129.91,1492.38 2134.76,1474.99 C2138.79,1461.46 2148.39,1429.88 2149.33,1427.18 C2152.63,1417.77 2158.75,1403.87 2161.14,1398.46 C2162.12,1408.12 2161.98,1415.08 2160.90,1422.20 C2159.01,1433.37 2154.47,1458.66 2151.01,1475.58 C2141.35,1518.38 2128.33,1571.11 2121.20,1599.48 C2112.66,1632.02 2094.87,1697.65 2085.63,1730.76 C2075.97,1763.26 2056.05,1828.50 2045.78,1861.24 C2035.81,1891.59 2016.09,1949.86 2006.35,1977.79 C1998.71,1998.29 1985.22,2031.79 1979.30,2045.12 C1976.52,2051.09 1971.14,2062.35 1968.53,2067.65 C1964.37,2075.71 1958.27,2085.98 1952.42,2093.26 C1951.26,2094.70 1941.36,2106.09 1939.88,2107.82 C1936.53,2107.53 1928.46,2107.03 1925.76,2105.63 C1923.83,2104.60 1921.65,2102.63 1920.77,2101.25 C1917.65,2096.05 1914.10,2084.55 1912.27,2074.88 C1910.63,2066.10 1907.36,2033.95 1906.12,2020.01 C1905.03,2003.63 1903.61,1966.77 1903.08,1948.20 C1902.90,1921.08 1903.06,1862.29 1903.40,1830.62 C1904.52,1794.67 1907.34,1723.94 1909.02,1689.17 C1911.29,1651.56 1915.61,1582.31 1917.65,1550.66 C1918.37,1539.48 1919.38,1523.86 1919.67,1519.43 C1920.86,1544.71 1923.88,1608.81 1925.71,1647.64 C1926.61,1665.65 1928.30,1698.85 1929.10,1714.04 C1930.22,1732.23 1932.84,1769.83 1934.35,1780.51 C1936.07,1791.68 1942.22,1829.11 1943.61,1834.60 C1944.49,1838.04 1947.12,1845.27 1947.57,1846.03 C1948.98,1848.31 1952.00,1851.47 1953.86,1852.38 C1954.43,1852.65 1961.11,1854.64 1962.49,1855.06 C1965.51,1850.48 1974.12,1837.50 1977.53,1830.82 C1981.34,1823.32 1991.13,1796.46 1995.13,1784.45 C2005.56,1750.38 2023.74,1689.63 2031.49,1662.95 C2038.88,1637.21 2054.77,1581.69 2063.28,1551.92 C2072.90,1518.12 2093.20,1446.79 2103.87,1409.26 C2114.15,1373.01 2133.81,1303.64 2143.18,1270.52 C2151.65,1240.53 2167.66,1183.69 2175.22,1156.83 C2187.29,1113.40 2209.08,1034.33 2218.79,998.69 C2224.90,975.06 2236.05,930.20 2241.09,908.95 C2243.32,898.94 2250.75,861.34 2253.78,843.81 C2256.17,827.68 2260.38,797.98 2262.21,784.40 C2263.61,773.49 2264.08,768.53 2265.00,754.42 C2265.49,743.95 2265.50,733.95 2264.79,726.49 C2263.92,717.58 2261.35,705.11 2259.80,698.15 C2257.94,690.51 2253.80,673.89 2251.22,666.78 C2248.35,658.95 2241.00,644.31 2236.34,637.38 C2231.74,630.59 2221.74,618.61 2214.68,611.43 C2209.26,605.92 2199.60,596.01 2195.36,591.62 C2190.03,586.03 2187.09,582.74 2185.53,579.79 C2183.85,576.47 2183.32,571.33 2184.29,567.37 C2185.37,563.29 2189.89,556.95 2192.82,554.59 C2198.53,550.14 2212.21,542.28 2220.19,538.90 C2224.85,536.94 2239.83,531.96 2249.63,529.10 C2264.86,524.90 2293.26,519.20 2308.55,517.11 C2313.62,516.47 2330.54,515.03 2338.01,514.46 C2347.59,513.90 2361.51,513.67 2369.17,513.95 C2376.03,514.24 2392.91,516.60 2400.73,518.29 C2408.38,519.96 2424.25,524.45 2427.65,525.92 C2431.03,527.39 2438.41,531.87 2441.09,534.08 C2443.46,536.06 2448.24,541.31 2450.25,544.02 C2452.93,547.68 2454.50,550.54 2456.31,554.94 C2458.41,560.23 2462.25,573.50 2463.46,580.43 C2464.87,588.61 2466.30,604.23 2466.62,612.70 C2466.94,624.94 2467.44,651.85 2467.61,666.50 C2467.65,683.43 2467.54,718.03 2467.40,735.71 C2466.61,771.22 2464.55,839.75 2463.29,872.77 C2461.64,906.58 2458.59,970.33 2457.19,1000.27 C2455.93,1032.78 2453.86,1095.14 2453.56,1123.28 C2453.89,1153.26 2455.98,1210.51 2457.28,1238.91 C2459.12,1271.29 2462.61,1338.64 2464.26,1373.62 C2465.46,1403.90 2467.76,1467.65 2468.88,1501.12 C2469.25,1518.01 2469.77,1551.27 2469.92,1567.63 C2469.86,1583.46 2469.49,1615.08 2469.19,1630.85 C2468.51,1649.23 2466.79,1685.23 2465.75,1702.84 C2462.98,1736.51 2456.69,1795.55 2453.61,1822.91 C2451.27,1840.42 2445.84,1877.73 2442.89,1894.24 C2440.57,1906.23 2437.52,1922.08 2436.78,1925.94 C2439.62,1901.58 2442.01,1888.49 2443.77,1885.10 C2444.32,1884.06 2446.72,1881.85 2447.54,1881.03 C2448.99,1886.37 2453.14,1901.51 2454.52,1908.98 C2456.05,1917.33 2458.22,1946.72 2459.07,1958.48 C2461.00,1986.86 2465.19,2050.09 2467.44,2084.94 C2469.97,2125.67 2474.77,2204.34 2477.04,2242.29 C2478.88,2274.59 2482.11,2333.55 2483.51,2360.20 C2484.08,2371.77 2485.23,2423.93 2484.97,2436.37 C2484.58,2445.51 2481.86,2472.06 2480.16,2484.09 C2479.16,2490.68 2470.49,2528.24 2466.25,2544.00 C2464.02,2551.68 2459.45,2566.83 2457.12,2574.30 C2455.88,2578.17 2448.15,2597.20 2444.95,2604.84 C2441.55,2612.39 2434.66,2627.29 2430.84,2633.64 C2427.04,2639.93 2418.33,2651.00 2412.88,2655.44 C2409.85,2657.88 2403.49,2661.91 2400.16,2663.50 C2396.83,2665.06 2389.86,2667.33 2386.04,2668.13 C2378.41,2669.67 2362.44,2669.91 2353.78,2668.89 C2347.12,2668.04 2334.02,2665.40 2324.79,2663.15 C2308.73,2658.73 2276.52,2650.08 2260.37,2645.85 C2243.08,2641.53 2211.88,2634.42 2197.68,2631.21 C2189.36,2629.12 2183.20,2626.71 2175.15,2622.45 C2175.33,2621.05 2175.68,2617.24 2176.03,2616.33 C2177.22,2613.27 2182.99,2608.51 2185.50,2606.42 C2199.77,2595.64 2222.59,2578.00 2227.46,2573.24 C2231.70,2569.08 2236.73,2560.38 2237.17,2559.62 C2236.60,2558.63 2235.18,2555.97 2234.72,2555.46 C2233.61,2554.27 2231.72,2553.52 2229.94,2553.40 C2224.06,2553.05 2207.33,2552.53 2201.83,2552.71 C2187.48,2553.20 2157.18,2557.03 2145.49,2558.55 C2115.91,2562.72 2050.72,2572.08 2015.10,2577.28 C1980.15,2582.10 1910.89,2591.33 1876.57,2595.72 C1843.12,2599.64 1777.97,2606.90 1746.28,2610.25 C1731.77,2611.62 1703.69,2614.17 1690.11,2615.34 C1673.27,2616.59 1637.62,2618.88 1618.80,2619.91 C1601.96,2620.49 1572.33,2620.92 1558.26,2621.04 C1546.09,2620.98 1510.82,2620.20 1497.37,2619.31 C1487.49,2618.44 1476.95,2617.02 1472.03,2615.90 C1468.07,2614.94 1462.71,2612.62 1459.74,2609.64 C1459.56,2609.45 1454.61,2603.45 1453.61,2602.26 C1455.43,2600.56 1462.09,2594.26 1462.83,2593.61 C1469.65,2587.67 1481.15,2582.24 1485.82,2580.09 C1496.40,2575.46 1522.63,2564.82 1539.07,2558.60 C1559.37,2551.34 1594.85,2538.89 1610.02,2533.69 C1642.82,2522.83 1709.47,2500.98 1743.33,2490.00 C1756.17,2485.80 1781.50,2477.42 1794.00,2473.24 C1803.88,2469.65 1812.66,2465.66 1812.89,2465.40 C1813.51,2464.67 1813.71,2462.68 1813.54,2461.40 C1791.31,2463.99 1730.47,2473.77 1701.04,2478.52 C1662.23,2484.84 1586.10,2497.20 1548.79,2503.25 C1533.58,2505.70 1505.43,2510.20 1492.51,2512.26 C1481.30,2514.03 1445.98,2518.67 1437.06,2518.82 C1431.80,2518.92 1424.59,2515.45 1423.46,2514.94 C1433.62,2508.66 1441.38,2504.11 1448.67,2501.38 C1472.32,2492.39 1528.82,2471.12 1561.68,2458.85 C1599.85,2444.68 1668.31,2419.18 1698.60,2407.84 C1710.40,2403.38 1739.43,2392.35 1749.01,2387.67 C1752.41,2386.00 1758.60,2382.62 1760.96,2381.15 C1764.55,2378.87 1767.33,2376.08 1768.59,2372.14 C1768.75,2371.59 1768.98,2370.91 1769.26,2370.09 C1749.28,2372.77 1730.12,2376.20 1714.50,2379.70 C1687.74,2385.78 1625.92,2399.97 1590.87,2408.06 C1551.46,2417.21 1480.22,2433.67 1448.40,2440.99 C1435.63,2443.89 1404.39,2450.94 1399.08,2451.99 C1387.26,2454.12 1374.78,2455.76 1369.02,2455.79 C1364.43,2455.71 1358.70,2454.83 1354.84,2453.11 C1354.68,2453.04 1347.41,2449.24 1346.41,2448.72 C1350.34,2445.11 1360.68,2435.58 1367.65,2430.71 C1372.86,2427.09 1439.40,2390.67 1468.76,2374.84 C1500.80,2357.94 1564.94,2324.48 1597.05,2307.92 C1629.82,2291.45 1691.74,2260.60 1720.89,2246.21 C1754.58,2229.44 1769.39,2221.49 1783.31,2213.24 C1781.82,2212.96 1778.99,2212.82 1777.49,2213.10 C1776.74,2213.24 1692.19,2246.79 1656.72,2260.99 C1642.08,2266.95 1609.40,2280.42 1591.37,2287.93 C1575.80,2294.69 1553.98,2304.64 1543.42,2309.45 C1527.79,2316.42 1502.05,2327.84 1491.92,2332.29" fill="none" stroke="rgb(65, 116, 181)" stroke-width="300.00" stroke-opacity="1.00" stroke-linejoin="round"/>
<path d="M686.69,710.75 C675.59,703.58 663.87,696.36 659.49,695.76 C659.03,695.70 658.49,695.63 657.88,695.53 C651.50,724.07 635.29,794.60 628.54,820.19 C624.23,835.44 614.40,866.06 610.21,877.13 C607.13,884.82 600.72,899.56 597.46,906.48 C594.27,912.91 587.11,926.22 583.35,931.74 C579.29,937.66 568.00,950.25 565.31,952.74 C562.97,954.89 555.73,960.60 553.00,962.44 C550.40,964.17 544.10,967.32 540.69,967.76 C538.90,967.96 535.32,967.77 533.72,967.38 C530.25,966.44 525.55,962.73 523.01,959.44 C519.12,954.29 512.42,940.13 509.67,931.81 C507.02,923.74 503.41,908.46 502.43,900.87 C501.54,893.42 500.44,876.08 500.49,869.34 C500.58,860.74 502.25,845.05 503.85,837.13 C507.33,820.14 514.70,799.15 517.56,793.51 C521.42,786.04 526.68,780.53 533.29,774.18 C535.99,774.96 542.64,777.05 545.64,779.77 C546.78,780.83 549.94,785.88 550.96,788.35 C553.24,793.99 555.33,809.00 556.30,819.18 C556.89,826.97 557.98,843.83 558.47,852.90 C558.76,862.96 558.40,876.84 557.64,884.81 C557.19,889.09 555.42,899.03 554.01,903.83 C551.87,910.90 544.34,923.85 541.55,928.65 C541.25,929.18 540.95,929.70 540.64,930.23 C538.70,928.78 531.20,923.22 530.85,922.95 C527.14,920.07 521.97,913.64 519.77,909.17 C517.40,904.24 514.55,890.34 514.09,881.67 C513.68,873.33 514.30,858.35 515.33,847.64 C516.29,839.67 518.89,822.64 520.43,814.06 C521.98,806.09 525.85,788.82 527.31,784.00 C530.12,774.79 535.45,763.62 539.48,757.03 C546.32,745.91 562.58,727.13 568.22,722.04 C570.99,719.56 577.70,714.99 581.05,713.17 C584.19,711.48 591.45,708.45 594.77,707.33 C599.01,705.93 604.37,704.77 608.70,704.39 C614.97,703.86 629.94,705.19 636.63,707.07 C644.11,709.22 657.17,715.40 664.83,720.09 C670.56,723.73 685.76,733.96 689.86,737.05 C696.21,741.84 707.60,751.78 713.48,757.85 C718.80,763.36 728.66,775.20 733.44,781.26 C738.10,787.38 745.42,797.40 751.62,806.79 C755.97,813.65 764.24,827.59 767.94,834.38 C772.39,842.99 777.78,855.45 780.39,864.01 C782.78,871.92 785.41,887.48 784.78,893.29 C784.30,897.48 781.99,903.78 779.97,907.46 C777.99,911.00 774.97,914.88 772.27,917.42 C769.76,919.73 764.77,923.00 760.46,924.91 C751.86,928.68 719.53,937.67 712.63,939.35 C704.51,941.28 696.10,940.59 694.83,940.51 C693.48,939.16 692.32,936.12 692.29,933.27 C692.29,931.10 700.84,907.81 701.02,902.30 C701.05,901.18 700.29,898.02 700.04,896.89 C694.93,897.83 691.75,898.98 689.76,901.31 C686.08,905.55 675.61,918.16 672.94,921.69 C668.55,927.49 655.37,947.81 652.84,952.22 C646.37,963.83 632.92,990.08 626.00,1004.69 C619.11,1020.21 605.88,1052.87 600.85,1066.49 C595.84,1080.93 585.84,1110.87 580.86,1126.36 C576.18,1141.89 567.26,1172.57 563.01,1187.72 C559.07,1203.39 551.60,1234.59 548.07,1250.12 C544.96,1265.38 539.06,1295.57 536.27,1310.50 C533.11,1328.66 529.10,1357.20 526.92,1373.42 C525.08,1389.56 521.72,1420.69 520.21,1435.67 C518.45,1454.70 517.04,1477.16 516.25,1490.91 C515.54,1507.64 515.62,1532.69 516.28,1551.38 C517.61,1576.54 523.03,1641.47 525.77,1672.09 C528.98,1706.67 535.05,1776.35 537.92,1811.46 C540.41,1844.44 545.12,1911.14 547.34,1944.85 C548.44,1961.46 550.80,1993.68 552.06,2009.29 C553.47,2023.89 556.43,2052.11 557.99,2065.72 C560.41,2083.60 566.29,2119.46 569.52,2135.67 C572.90,2151.11 593.58,2228.46 600.18,2250.77 C610.36,2283.72 624.87,2329.77 629.21,2342.86 C632.63,2352.68 636.87,2362.88 641.39,2370.52 C643.45,2373.94 647.16,2378.52 649.73,2380.66 C652.30,2382.76 658.47,2386.28 661.33,2387.22 C667.44,2389.18 677.39,2391.37 687.53,2393.02 C719.37,2397.97 784.11,2408.48 816.16,2414.46 C830.31,2417.31 858.17,2423.15 872.00,2426.39 C887.38,2430.43 920.72,2440.36 936.98,2445.41 C971.43,2457.19 1029.00,2477.09 1052.11,2485.22 C1033.86,2489.60 1020.58,2491.59 998.06,2494.53 C962.99,2498.91 892.04,2507.77 856.15,2512.24 C843.53,2513.89 819.78,2516.98 801.82,2521.19 C801.22,2521.33 800.62,2521.47 800.01,2521.61 C820.45,2524.57 842.27,2526.92 858.35,2527.85 C871.30,2528.45 899.75,2529.59 915.25,2530.14 C932.53,2530.52 968.56,2531.09 987.32,2531.28 C1016.40,2531.17 1077.38,2530.51 1109.29,2529.97 C1142.62,2528.82 1210.85,2525.83 1245.75,2523.99 C1281.57,2521.53 1344.91,2516.86 1372.43,2514.67 C1389.85,2513.10 1403.52,2509.50 1407.89,2508.32 C1408.12,2506.71 1408.86,2502.41 1408.78,2501.35 C1408.51,2497.87 1404.36,2490.67 1403.27,2489.13 C1396.97,2480.67 1390.74,2470.83 1386.24,2462.73 C1379.77,2450.55 1361.74,2413.21 1358.60,2405.47 C1353.36,2392.30 1342.52,2362.90 1337.04,2347.58 C1326.29,2315.47 1312.21,2269.47 1305.71,2247.51 C1302.19,2234.21 1293.44,2196.02 1288.70,2174.45 C1281.70,2139.73 1268.94,2075.00 1263.18,2044.99 C1256.70,2010.24 1243.23,1937.31 1236.24,1899.13 C1229.93,1865.33 1218.22,1803.40 1212.81,1775.28 C1210.44,1763.35 1205.07,1736.95 1199.89,1714.31 C1194.58,1693.03 1186.40,1668.41 1182.60,1657.97 C1180.88,1653.60 1176.68,1642.88 1171.67,1637.45 C1169.81,1635.46 1163.01,1630.10 1161.84,1629.58 C1160.47,1628.99 1150.40,1627.38 1147.49,1627.79 C1143.65,1628.39 1139.20,1631.10 1136.33,1633.62 C1133.54,1636.12 1125.60,1644.23 1121.52,1648.65 C1114.93,1656.09 1107.86,1665.12 1102.45,1673.47 C1093.37,1687.56 1074.05,1724.51 1067.98,1736.52 C1054.80,1764.09 1026.05,1827.73 1011.52,1860.28 C1004.96,1874.61 992.32,1901.90 986.24,1914.85 C976.61,1934.45 958.48,1970.34 950.73,1984.42 C943.91,1996.11 927.49,2023.36 925.61,2025.99 C920.15,2033.62 909.11,2045.17 903.81,2048.87 C902.51,2049.76 901.04,2050.66 898.63,2052.01 C895.99,2053.44 888.92,2054.10 885.55,2053.79 C882.00,2053.44 874.84,2051.52 871.20,2049.96 C867.87,2048.49 862.70,2043.93 861.19,2042.41 C856.85,2038.02 847.99,2026.29 842.74,2018.03 C839.41,2012.76 822.09,1979.26 819.70,1973.98 C817.63,1969.40 810.04,1949.65 806.59,1939.75 C800.91,1922.46 792.25,1892.29 788.61,1879.22 C784.77,1864.54 776.88,1833.58 772.83,1817.30 C768.79,1800.17 761.05,1766.23 757.36,1749.43 C754.01,1732.98 747.60,1699.97 744.54,1683.42 C741.66,1665.85 736.32,1631.12 733.87,1613.96 C730.13,1581.29 723.70,1520.70 721.00,1492.79 C719.57,1473.89 717.07,1436.67 716.38,1420.49 C715.99,1406.76 715.28,1377.04 715.42,1365.23 C715.63,1355.97 716.19,1343.50 716.99,1336.39 C717.36,1333.10 719.13,1329.83 722.48,1325.23 C723.16,1327.64 728.26,1346.32 729.09,1353.82 C730.93,1370.60 735.74,1417.93 737.19,1437.71 C738.32,1457.80 740.59,1503.98 741.72,1530.08 C742.90,1564.76 744.93,1628.39 745.78,1657.33 C746.65,1689.83 748.41,1758.36 749.30,1794.40 C750.21,1834.00 752.03,1914.91 752.94,1956.23 C753.74,1993.15 755.25,2062.10 755.95,2094.12 C756.55,2121.25 757.63,2170.61 758.11,2192.85 C758.22,2197.64 758.40,2205.82 758.47,2209.22 C760.33,2185.34 765.39,2124.51 768.59,2087.55 C771.66,2057.50 778.27,1996.26 781.79,1965.07 C786.17,1931.29 795.35,1864.61 800.16,1831.70 C805.49,1798.31 816.37,1732.30 821.92,1699.67 C824.45,1685.44 829.34,1658.39 831.70,1645.58 C836.01,1624.05 844.14,1585.21 847.63,1570.62 C850.58,1558.51 856.60,1534.09 859.67,1521.78 C862.07,1512.08 865.44,1502.05 868.57,1496.29 C871.81,1490.37 880.75,1476.35 884.16,1471.00 C885.64,1472.68 891.10,1478.82 891.65,1479.52 C894.09,1482.62 897.64,1490.15 898.37,1493.01 C900.65,1501.70 904.35,1526.53 906.55,1548.76 C908.42,1572.23 912.33,1634.28 914.07,1662.44 C916.08,1696.24 920.39,1769.47 922.69,1808.90 C925.01,1848.95 929.35,1923.27 931.38,1957.54 C933.11,1986.02 936.49,2039.93 938.16,2065.36 C938.99,2074.60 940.69,2091.82 941.60,2098.99 C942.95,2107.84 945.31,2119.62 946.44,2123.24 C949.36,2132.39 957.35,2145.84 960.58,2151.20 C962.70,2150.23 970.59,2146.67 971.40,2146.27 C975.01,2144.42 981.40,2139.38 983.49,2137.03 C987.52,2132.40 993.98,2123.08 997.95,2116.12 C1006.64,2100.40 1038.82,2033.74 1053.08,2003.88 C1068.47,1971.49 1098.65,1908.40 1113.43,1877.71 C1121.90,1860.50 1137.50,1829.17 1144.63,1815.06 C1150.93,1802.97 1163.45,1779.36 1169.68,1767.84 C1174.39,1759.57 1183.36,1744.17 1187.31,1737.82 C1191.17,1731.79 1198.25,1722.37 1202.58,1717.52 C1204.85,1715.02 1211.75,1709.05 1215.61,1706.52 C1218.42,1704.71 1231.58,1698.05 1233.70,1696.96 C1235.40,1698.67 1241.94,1705.18 1242.25,1705.50 C1245.49,1708.90 1250.02,1716.63 1252.06,1722.26 C1253.62,1726.66 1256.25,1740.63 1256.96,1748.27 C1258.18,1763.98 1258.76,1796.99 1258.52,1811.95 C1257.98,1827.73 1256.07,1861.09 1254.95,1878.03 C1252.12,1908.64 1244.73,1972.96 1240.38,2004.74 C1237.98,2020.65 1233.02,2052.42 1230.45,2068.29 C1227.73,2083.79 1221.90,2115.29 1218.79,2131.28 C1215.53,2146.84 1208.96,2176.86 1205.65,2191.32 C1201.55,2207.59 1192.68,2239.46 1188.26,2253.73 C1186.09,2260.18 1181.31,2274.00 1177.67,2282.98 C1174.02,2291.76 1168.02,2303.33 1164.38,2308.25 C1163.36,2309.60 1161.11,2311.61 1159.36,2312.60 C1156.84,2313.98 1150.30,2314.22 1147.45,2314.39 C1145.47,2309.30 1140.67,2296.64 1139.45,2287.28 C1138.75,2281.79 1138.60,2268.86 1139.07,2257.91 C1140.15,2241.25 1144.31,2210.32 1146.99,2194.44 C1150.92,2173.80 1157.08,2147.21 1161.07,2131.53 C1165.23,2116.07 1174.28,2085.71 1179.40,2070.36 C1184.71,2055.54 1195.64,2028.10 1202.94,2012.78 C1206.39,2005.81 1213.48,1992.49 1217.08,1986.23 C1226.06,1971.27 1240.78,1952.90 1245.41,1948.46 C1248.36,1945.68 1254.73,1941.02 1258.35,1939.68 C1260.60,1938.87 1266.40,1937.95 1270.32,1937.28 C1277.89,1945.63 1283.00,1951.86 1285.68,1959.47 C1287.83,1965.76 1290.47,1980.05 1290.73,1988.29 C1290.95,1995.78 1289.64,2011.17 1288.40,2019.00 C1287.63,2023.80 1283.62,2043.34 1281.69,2051.53 C1279.02,2062.52 1268.01,2096.72 1262.80,2110.06 C1260.01,2116.88 1252.72,2132.01 1249.57,2137.62 C1242.19,2150.71 1227.94,2171.33 1216.43,2185.61 C1211.59,2191.33 1201.39,2202.62 1195.76,2208.05 C1186.68,2216.52 1159.16,2239.54 1148.12,2247.46 C1139.93,2253.12 1131.34,2258.39 1123.38,2262.21 C1116.99,2265.26 1102.03,2271.17 1094.84,2273.82 C1075.21,2280.61 1042.56,2290.34 1030.98,2292.73 C1020.63,2294.71 1007.12,2296.71 998.43,2297.46 C991.20,2297.97 977.28,2298.78 970.59,2299.09 C948.97,2299.40 930.90,2297.76 925.78,2296.56 C917.17,2294.47 904.36,2288.10 900.39,2286.13 C902.72,2284.79 909.51,2280.87 912.74,2279.77 C916.72,2278.43 930.06,2276.87 935.64,2276.28 C949.05,2275.14 982.16,2273.26 1001.46,2272.79 C1019.29,2272.75 1052.85,2272.96 1068.57,2273.22 C1103.16,2274.32 1168.23,2276.07 1199.85,2276.12 C1210.45,2275.89 1228.77,2275.04 1236.51,2274.43 C1249.80,2272.94 1278.41,2268.97 1289.09,2266.18 C1295.44,2264.51 1310.46,2258.95 1314.68,2256.47 C1321.51,2252.43 1333.26,2244.36 1339.47,2240.04 C1344.90,2236.12 1345.71,2235.44 1349.97,2231.17 C1355.04,2225.97 1363.70,2215.55 1368.21,2207.89 C1371.98,2201.43 1376.46,2190.93 1378.30,2186.52 C1382.41,2176.10 1391.20,2153.10 1395.88,2140.53 C1398.38,2133.55 1403.34,2118.15 1405.77,2109.71 C1408.19,2100.78 1412.92,2081.18 1415.27,2071.01 C1419.86,2048.69 1426.62,2010.61 1428.90,1996.83 C1431.12,1981.96 1435.53,1951.13 1437.70,1935.17 C1441.91,1899.97 1450.06,1828.03 1453.99,1791.29 C1457.45,1759.89 1463.88,1702.74 1466.86,1677.00 C1469.91,1652.98 1476.14,1607.57 1478.01,1597.28 C1480.20,1586.06 1484.75,1563.95 1487.12,1553.05 C1490.23,1540.52 1494.26,1526.99 1496.69,1522.10 C1497.33,1520.92 1498.81,1518.20 1499.29,1517.73 C1500.90,1516.22 1504.18,1514.92 1506.69,1514.82 C1506.82,1514.82 1511.13,1514.94 1512.68,1514.93 C1514.51,1519.71 1519.75,1533.28 1521.68,1540.08 C1524.03,1548.38 1528.79,1578.17 1530.62,1592.12 C1532.40,1607.99 1535.44,1645.31 1536.80,1664.39 C1538.23,1693.00 1540.80,1755.17 1541.93,1788.73 C1542.30,1805.80 1542.86,1839.90 1543.06,1856.93 C1542.95,1891.42 1542.11,1960.14 1541.38,1994.36 C1540.89,2009.91 1539.88,2039.40 1539.35,2053.36 C1538.55,2070.00 1536.46,2107.14 1535.12,2124.43 C1534.42,2131.61 1533.05,2144.98 1532.37,2151.16 C1530.13,2168.92 1527.65,2177.74 1524.02,2188.61 C1522.84,2186.10 1519.91,2179.61 1519.11,2175.09 C1518.83,2173.42 1517.50,2136.59 1517.71,2125.23 C1518.52,2106.44 1522.68,2066.27 1524.49,2052.16 C1528.89,2021.29 1540.17,1952.98 1546.00,1919.09 C1548.54,1905.12 1554.47,1874.00 1557.86,1856.84 C1561.44,1840.50 1567.75,1815.95 1571.59,1803.00 C1576.39,1787.99 1586.00,1759.06 1590.81,1745.15 C1596.51,1729.13 1608.31,1696.53 1614.40,1679.94 C1619.90,1665.83 1632.29,1634.95 1639.17,1620.07 C1644.41,1609.44 1649.87,1599.60 1653.60,1593.97 C1657.05,1588.77 1665.10,1578.41 1669.59,1573.79 C1676.91,1566.33 1698.05,1550.72 1700.00,1549.27 C1702.43,1550.00 1711.81,1552.76 1712.26,1552.90 C1714.77,1553.72 1718.40,1555.41 1720.40,1556.76 C1724.04,1559.25 1728.86,1564.85 1730.90,1568.13 C1734.13,1573.43 1738.29,1584.26 1741.67,1595.54 C1743.93,1603.83 1747.43,1618.49 1749.23,1627.47 C1751.87,1642.22 1756.49,1674.46 1758.47,1691.39 C1759.63,1702.50 1762.22,1737.35 1763.23,1752.72 C1763.98,1768.48 1765.17,1799.92 1765.61,1815.59 C1765.76,1831.34 1765.84,1862.96 1765.76,1878.84 C1765.44,1894.44 1764.47,1925.87 1763.83,1941.70 C1762.93,1957.30 1760.95,1987.69 1759.87,2002.47 C1758.23,2018.94 1754.63,2051.02 1752.67,2066.63 C1750.01,2084.51 1743.66,2118.06 1740.76,2128.03 C1739.82,2131.24 1737.31,2138.27 1736.88,2139.20 C1734.47,2144.32 1730.78,2148.89 1727.28,2151.89 C1726.70,2152.38 1724.77,2154.09 1724.10,2154.68 C1722.06,2151.31 1718.51,2145.66 1717.47,2143.34 C1715.56,2139.05 1714.27,2132.92 1713.73,2127.87 C1712.85,2117.93 1711.59,2080.53 1711.53,2062.86 C1711.80,2045.96 1713.55,2013.66 1714.99,1998.43 C1716.84,1983.20 1720.86,1952.07 1723.15,1937.24 C1725.74,1921.66 1731.20,1890.13 1734.08,1874.19 C1737.06,1859.04 1743.15,1829.71 1746.27,1815.51 C1749.50,1801.58 1757.60,1771.36 1762.71,1754.58 C1767.62,1739.66 1778.53,1709.08 1784.34,1693.22 C1790.61,1677.10 1802.65,1646.92 1808.05,1634.31 C1811.41,1626.78 1819.81,1609.24 1824.31,1601.63 C1828.20,1595.10 1836.26,1585.37 1840.31,1581.90 C1842.95,1579.67 1848.29,1576.33 1852.24,1574.88 C1856.26,1573.44 1869.94,1571.74 1872.30,1571.43 C1875.61,1575.93 1885.09,1588.77 1888.25,1595.29 C1891.46,1602.00 1895.71,1617.50 1897.03,1625.11 C1900.19,1643.65 1904.81,1703.15 1904.87,1709.59 C1904.83,1723.12 1902.60,1765.45 1901.70,1778.95 C1898.87,1813.19 1892.95,1880.27 1889.85,1913.10 C1888.11,1929.26 1883.24,1970.46 1881.56,1980.62 C1879.61,1991.76 1875.26,2017.71 1872.86,2032.50 C1871.66,2040.60 1869.87,2055.98 1869.79,2060.65 C1869.68,2069.84 1872.25,2078.00 1873.31,2081.52 C1883.17,2076.79 1889.02,2073.31 1894.25,2068.16 C1900.20,2062.06 1914.66,2046.30 1923.52,2036.14 C1949.22,2004.87 1994.25,1947.74 2011.85,1925.19 C2033.07,1897.77 2078.71,1838.59 2103.14,1806.84 C2124.84,1778.61 2163.56,1728.25 2180.58,1706.13 C2210.56,1667.20 2219.76,1656.56 2223.45,1653.48 C2228.62,1649.22 2240.17,1643.78 2242.51,1642.66 C2244.43,1644.93 2249.07,1650.20 2250.34,1653.05 C2251.88,1656.58 2252.42,1663.62 2252.51,1664.99 C2253.14,1677.08 2252.74,1711.42 2252.09,1729.94 C2251.18,1747.98 2248.93,1778.51 2247.67,1794.14 C2246.06,1810.31 2242.60,1842.16 2240.74,1857.85 C2238.39,1874.11 2233.36,1906.30 2230.68,1922.23 C2227.74,1937.58 2221.69,1967.78 2218.09,1983.55 C2214.20,1999.45 2205.98,2029.95 2201.81,2044.81 C2196.41,2062.77 2185.92,2092.91 2181.30,2104.62 C2172.66,2125.37 2164.07,2142.94 2153.56,2160.32 C2149.61,2166.69 2140.26,2181.59 2138.32,2184.36 C2134.59,2189.58 2126.02,2201.32 2122.99,2204.72 C2114.88,2213.73 2087.88,2237.91 2077.57,2246.97 C2064.82,2257.81 2038.37,2279.83 2024.68,2291.01 C2010.78,2301.87 1983.21,2323.02 1969.54,2333.30 C1942.74,2352.81 1905.96,2379.90 1895.98,2387.49 C1888.60,2393.23 1875.73,2405.46 1871.73,2410.89 C1869.85,2413.46 1867.23,2417.60 1865.55,2420.65 C1864.17,2423.21 1862.34,2429.71 1861.90,2433.18 C1861.44,2437.17 1862.33,2443.36 1864.06,2446.64 C1865.72,2449.67 1870.84,2454.38 1872.86,2455.92 C1878.02,2459.80 1892.66,2467.69 1900.63,2471.01 C1905.94,2473.21 1920.69,2477.79 1929.65,2480.13 C1948.22,2484.46 1971.57,2487.86 1995.86,2490.11 C2004.27,2490.70 2019.73,2491.65 2026.79,2492.02 C2035.68,2492.39 2049.23,2491.64 2057.89,2490.32 C2064.63,2489.20 2082.29,2484.94 2086.08,2483.84 C2094.40,2481.42 2106.23,2476.45 2113.67,2472.38 C2120.23,2468.76 2133.78,2459.78 2138.71,2455.64 C2145.19,2450.14 2155.78,2439.82 2161.24,2434.24 C2168.81,2426.28 2175.81,2417.90 2180.20,2412.40 C2185.59,2405.45 2192.86,2394.49 2198.47,2384.76 C2204.04,2374.52 2217.93,2346.87 2222.89,2335.84 C2229.96,2319.09 2242.71,2285.65 2247.97,2271.24 C2259.38,2237.87 2275.96,2190.21 2280.74,2177.78 C2284.49,2168.57 2290.26,2156.45 2295.50,2150.35 C2296.85,2148.80 2306.16,2139.98 2307.58,2138.61 C2309.48,2143.17 2314.53,2155.24 2316.53,2164.21 C2317.90,2170.44 2321.63,2206.27 2323.05,2222.00 C2324.23,2239.45 2326.12,2273.96 2326.85,2291.01 C2327.19,2308.70 2327.08,2343.14 2326.58,2359.53 C2326.19,2367.12 2325.14,2381.08 2324.47,2387.45 C2323.29,2396.60 2320.21,2412.68 2317.19,2420.04 C2315.31,2424.54 2306.84,2437.77 2304.61,2440.25 C2300.58,2444.67 2290.68,2450.92 2288.31,2452.91 C2285.28,2455.49 2283.60,2459.34 2283.11,2460.42 C2287.19,2437.02 2297.22,2379.50 2303.17,2345.37 C2310.32,2304.54 2323.27,2231.31 2329.07,2198.92 C2330.27,2192.37 2332.57,2179.88 2333.67,2173.95 C2337.90,2151.44 2341.43,2143.25 2344.90,2135.72 C2345.11,2145.96 2345.63,2171.60 2345.70,2189.48 C2345.39,2209.48 2344.10,2242.61 2343.37,2257.86 C2342.32,2274.80 2340.13,2308.22 2339.00,2324.68 C2337.96,2338.96 2336.29,2362.19 2332.98,2390.90 C2331.91,2398.84 2329.79,2412.53 2328.73,2419.05 C2327.68,2424.81 2325.51,2436.45 2322.99,2444.60 C2322.16,2447.26 2319.42,2454.74 2318.20,2456.37 C2316.36,2458.74 2309.49,2462.57 2304.76,2463.85 C2300.29,2465.04 2284.61,2465.95 2277.64,2466.12 C2257.18,2466.29 2172.46,2462.43 2140.14,2460.92 C2134.97,2460.72 2121.17,2461.00 2114.16,2461.10 C2106.69,2461.10 2089.99,2461.12 2080.76,2461.15 C2073.34,2461.17 2063.43,2461.21 2060.95,2461.21" fill="none" stroke="rgb(65, 116, 181)" stroke-width="300.00" stroke-opacity="1.00" stroke-linejoin="round"/>
</g>
<g stroke-linecap="round" transform="translate(0.00, -38.00)" id="レイヤー_8">
<path d="M341.56,362.31 Q1500.56,362.31 2659.56,362.31 Q2683.06,362.31 2683.06,385.81 Q2683.06,1544.81 2683.06,2703.81 Q2683.06,2727.31 2659.56,2727.31 Q1500.56,2727.31 341.56,2727.31 Q318.06,2727.31 318.06,2703.81 Q318.06,1544.81 318.06,385.81 Q318.06,362.31 341.56,362.31 Z" fill="none" stroke="rgb(65, 116, 181)" stroke-width="250.00" stroke-opacity="1.00" stroke-linejoin="round"/>
</g>
<g stroke-linecap="round" transform="translate(-55.00, -40.00)" id="レイヤー_5_のコピー">
<path d="M737.73,1177.20 C744.12,1179.25 759.63,1184.26 767.94,1187.11 C776.98,1190.36 787.13,1194.70 795.92,1198.98 C800.11,1201.08 815.62,1209.96 822.15,1213.98 C826.04,1216.41 841.20,1226.98 846.63,1231.28 C852.15,1235.73 864.33,1248.48 868.56,1253.55 C872.16,1257.87 878.97,1267.59 885.67,1279.00 C892.12,1290.63 906.76,1317.50 914.95,1332.74 C922.92,1348.02 938.57,1378.46 946.25,1393.62 C952.88,1407.15 968.28,1439.37 972.08,1450.12 C972.50,1451.32 986.63,1494.55 987.28,1496.63 C994.69,1522.78 1013.43,1596.72 1022.03,1631.05 C1029.57,1661.00 1041.36,1707.68 1049.66,1745.07 C1056.73,1778.52 1071.27,1845.44 1078.74,1878.92 C1082.21,1892.52 1089.60,1922.55 1091.50,1934.98 C1091.90,1937.58 1092.44,1941.08 1092.58,1941.99 C1090.44,1940.15 1089.67,1939.25 1089.04,1937.71 C1088.91,1937.41 1072.75,1904.09 1066.03,1890.16 C1058.11,1873.49 1042.80,1840.71 1035.42,1824.61 C1028.80,1809.57 1016.38,1780.66 1010.57,1766.79 C1005.27,1753.47 994.88,1726.51 989.78,1712.87 C978.80,1681.51 958.17,1617.90 948.57,1587.47 C938.29,1553.31 919.48,1490.41 910.96,1461.66 C901.25,1428.16 884.53,1370.64 877.51,1346.62 C875.13,1339.00 870.25,1323.65 867.73,1315.92 C865.17,1308.64 858.81,1292.32 856.61,1287.58 C849.82,1273.06 837.27,1255.07 836.90,1254.71 C834.89,1252.70 830.61,1250.86 829.55,1250.38" fill="none" stroke="rgb(57, 109, 141)" stroke-width="131.65" stroke-opacity="1.00" stroke-linejoin="round"/>
<path d="M1163.20,2460.06 C1163.73,2461.90 1164.12,2463.00 1164.38,2463.35 C1165.01,2464.17 1183.87,2466.75 1191.52,2467.07 C1202.06,2467.27 1213.60,2466.32 1221.64,2464.33 C1228.61,2462.54 1243.02,2457.72 1248.74,2455.32 C1256.18,2452.19 1268.74,2445.69 1277.87,2440.37 C1288.34,2433.94 1323.12,2410.10 1329.48,2405.42 C1338.46,2398.60 1347.41,2390.90 1350.63,2387.75 C1352.82,2385.60 1367.68,2369.51 1371.61,2364.85 C1375.36,2360.35 1381.91,2350.77 1386.97,2342.65 C1395.39,2328.58 1409.00,2304.71 1416.44,2291.51 C1424.77,2275.67 1439.27,2246.02 1446.16,2231.55 C1453.24,2216.01 1466.02,2187.57 1471.73,2174.65 C1480.56,2153.33 1490.47,2125.68 1492.66,2118.81 C1498.28,2100.65 1504.99,2075.84 1508.05,2060.42 C1509.49,2052.55 1512.02,2036.45 1513.06,2028.37 C1513.73,2022.43 1515.13,2004.23 1515.54,1996.08 C1515.80,1988.25 1515.96,1971.28 1515.55,1963.84 C1515.27,1959.02 1513.86,1945.22 1513.62,1942.83" fill="none" stroke="rgb(57, 109, 141)" stroke-width="131.65" stroke-opacity="1.00" stroke-linejoin="round"/>
<path d="M1535.26,1183.33 C1535.93,1182.06 1536.41,1181.31 1536.70,1181.09 C1540.53,1178.32 1574.60,1188.28 1579.67,1190.32 C1585.84,1192.83 1593.87,1198.99 1601.02,1205.63 C1610.63,1214.86 1616.46,1220.70 1620.21,1224.97 C1625.01,1230.48 1646.04,1261.71 1654.95,1275.10 C1673.51,1303.10 1709.10,1356.47 1726.14,1381.83 C1733.99,1394.20 1750.13,1420.07 1758.42,1433.56 C1766.92,1447.87 1782.39,1475.57 1790.65,1491.61 C1798.35,1507.49 1811.09,1535.45 1816.74,1547.83 C1824.93,1565.33 1857.25,1626.33 1872.23,1654.79 C1880.02,1670.79 1894.19,1700.82 1900.57,1714.84 C1913.05,1744.07 1938.33,1802.48 1951.11,1831.67 C1957.66,1846.12 1970.32,1874.62 1976.03,1888.54 C1982.67,1905.79 1991.81,1932.92 1997.65,1953.14 C2001.02,1965.82 2005.43,1982.37 2005.42,1982.77 C2005.39,1984.16 2004.54,1986.64 2003.83,1987.90" fill="none" stroke="rgb(57, 109, 141)" stroke-width="131.65" stroke-opacity="1.00" stroke-linejoin="round"/>
<path d="M2482.93,1338.53 C2482.88,1340.06 2482.98,1341.03 2483.40,1342.64 C2484.62,1347.23 2490.25,1359.42 2492.05,1366.56 C2493.70,1373.40 2497.68,1390.80 2498.93,1397.40 C2502.00,1415.03 2502.87,1433.10 2503.15,1461.40 C2503.51,1476.33 2504.41,1506.54 2504.63,1522.50 C2504.57,1535.11 2502.93,1569.35 2501.75,1585.57 C2500.34,1601.39 2497.17,1632.27 2495.40,1647.34 C2493.23,1662.69 2488.50,1694.06 2485.93,1708.57 C2483.01,1723.84 2476.83,1754.66 2473.34,1769.72 C2469.60,1784.30 2460.37,1814.79 2455.27,1829.48 C2444.93,1858.87 2418.61,1933.91 2413.09,1947.94 C2406.92,1962.97 2394.40,1992.62 2388.29,2006.14 C2382.33,2018.64 2370.51,2041.27 2363.50,2053.37 C2345.80,2081.99 2309.06,2140.70 2290.02,2170.78 C2281.84,2183.84 2265.34,2210.50 2257.02,2224.11 C2248.23,2239.04 2236.43,2261.79 2230.66,2272.69 C2223.43,2285.64 2207.12,2313.00 2197.77,2327.68 C2191.58,2337.10 2186.92,2343.64 2181.59,2349.69 C2181.59,2349.69 2177.93,2340.47 2177.93,2340.47" fill="none" stroke="rgb(57, 109, 141)" stroke-width="131.65" stroke-opacity="1.00" stroke-linejoin="round"/>
<path d="M2484.95,1689.63 C2483.20,1692.19 2481.44,1697.37 2480.78,1699.67 C2476.64,1714.66 2467.68,1747.01 2462.86,1764.38 C2455.49,1789.24 2450.43,1803.40 2443.07,1822.07 C2435.07,1841.71 2427.71,1862.68 2422.48,1877.89 C2417.60,1892.96 2407.27,1924.51 2401.82,1940.99 C2396.30,1956.76 2384.64,1987.58 2378.58,2002.56 C2367.02,2030.10 2337.99,2098.84 2332.15,2111.15 C2324.17,2127.12 2309.56,2154.16 2302.59,2166.74 C2294.36,2181.04 2277.39,2209.94 2268.66,2224.55 C2260.19,2238.07 2242.29,2265.97 2231.84,2281.29 C2217.20,2301.95 2183.21,2346.20 2175.46,2355.40 C2168.92,2362.87 2160.70,2370.81 2156.31,2374.65 C2153.30,2377.26 2138.64,2387.34 2132.92,2390.59 C2126.50,2394.21 2111.50,2401.14 2104.48,2404.32 C2096.63,2407.74 2078.83,2414.73 2075.20,2415.88 C2067.29,2418.37 2056.79,2420.42 2046.07,2421.88 C2035.80,2423.22 2024.24,2424.51 2016.85,2425.32 C2007.18,2426.36 1993.46,2426.79 1986.83,2426.02 C1979.28,2425.11 1960.17,2419.23 1957.94,2418.43 C1952.25,2416.37 1936.17,2409.31 1930.11,2406.45 C1925.70,2404.40 1920.83,2401.29 1916.72,2397.52 C1912.66,2393.74 1901.50,2380.22 1896.14,2373.62 C1890.58,2366.74 1880.19,2353.99 1875.38,2348.11 C1874.93,2347.56 1874.47,2347.01 1874.02,2346.47" fill="none" stroke="rgb(57, 109, 141)" stroke-width="131.65" stroke-opacity="1.00" stroke-linejoin="round"/>
</g>
<g stroke-linecap="round" transform="translate(14.00, -53.00)" id="レイヤー_2_のコピー_2">
<path d="M674.29,1303.44 C674.00,1306.00 673.08,1314.25 672.85,1316.00 C672.29,1320.17 670.92,1337.68 671.40,1343.61 C672.19,1354.17 674.13,1378.80 675.29,1392.88 C676.75,1409.48 680.96,1446.23 683.36,1465.32 C686.09,1483.43 691.32,1515.97 693.81,1530.40 C696.64,1545.68 702.64,1577.09 705.81,1593.22 C709.30,1609.92 716.46,1642.89 720.13,1659.16 C723.99,1674.90 731.90,1705.85 735.95,1721.06 C740.60,1737.00 750.20,1768.48 755.15,1784.03 C760.34,1798.99 770.97,1828.41 776.40,1842.87 C788.00,1872.10 811.92,1931.11 824.87,1961.11 C838.65,1991.94 866.24,2052.55 880.05,2082.34 C886.11,2095.09 898.30,2120.40 904.43,2132.95 C914.23,2152.04 930.39,2181.71 937.28,2193.28 C944.41,2204.59 957.05,2223.32 969.79,2239.87 C979.88,2252.28 1003.40,2279.05 1009.80,2285.20 C1021.53,2296.43 1042.64,2311.99 1048.13,2315.98 C1052.42,2319.01 1056.45,2321.34 1060.44,2322.96 C1062.01,2323.57 1065.71,2324.46 1066.75,2324.32 C1067.69,2324.16 1071.28,2322.05 1072.36,2321.15 C1075.27,2318.65 1077.41,2314.42 1078.79,2310.38 C1081.91,2300.43 1089.86,2271.63 1094.22,2255.23 C1102.07,2223.24 1117.02,2161.24 1124.13,2131.23 C1132.25,2097.83 1148.78,2031.83 1157.18,1999.22 C1165.78,1967.53 1183.47,1903.92 1192.56,1872.01 C1197.00,1857.19 1205.80,1828.37 1210.16,1814.37 C1215.57,1797.97 1226.69,1765.27 1232.42,1748.97 C1243.73,1718.86 1265.11,1665.14 1275.50,1639.38 C1281.10,1626.08 1291.94,1600.63 1297.18,1588.49 C1311.41,1557.40 1339.60,1497.07 1353.57,1467.83 C1369.89,1434.10 1400.98,1369.90 1415.76,1339.42 C1421.17,1328.27 1432.54,1304.95 1438.49,1292.78 C1439.36,1290.96 1440.22,1290.50 1442.25,1290.45 C1449.81,1308.87 1472.56,1365.71 1487.74,1404.13 C1498.35,1431.50 1521.78,1492.16 1534.61,1525.47 C1547.32,1558.81 1570.26,1619.63 1580.50,1647.10 C1587.22,1665.64 1599.97,1701.67 1606.01,1719.17 C1609.85,1731.36 1617.48,1755.28 1621.26,1767.00 C1625.71,1779.94 1635.72,1807.99 1641.29,1823.10 C1647.36,1838.71 1659.35,1868.68 1665.26,1883.04 C1669.35,1892.58 1683.00,1921.59 1688.98,1933.49 C1695.70,1946.25 1712.92,1977.12 1721.97,1993.06 C1736.59,2017.85 1768.89,2071.85 1786.57,2101.07 C1795.37,2115.12 1812.80,2142.60 1821.44,2156.03 C1832.24,2172.09 1853.64,2203.25 1864.22,2218.35 C1882.29,2242.83 1903.53,2271.44 1906.71,2275.57 C1907.41,2276.48 1911.08,2281.32 1913.74,2282.44 C1915.11,2282.99 1918.00,2283.05 1919.66,2282.63 C1921.76,2282.06 1923.53,2281.06 1925.12,2279.61 C1928.11,2276.90 1933.05,2271.88 1935.38,2268.83 C1939.45,2263.46 1945.10,2252.00 1947.31,2247.46 C1958.80,2222.94 1985.04,2165.90 1999.80,2133.38 C2015.04,2099.20 2043.03,2035.77 2055.79,2006.53 C2069.13,1975.60 2095.38,1914.44 2108.29,1884.21 C2119.74,1857.08 2143.60,1800.03 2156.00,1770.10 C2161.49,1756.63 2171.98,1730.59 2176.98,1718.03 C2182.28,1704.00 2193.30,1674.09 2199.03,1658.20 C2209.86,1626.46 2231.65,1561.03 2242.61,1527.33 C2254.00,1491.26 2273.83,1428.44 2282.26,1401.69 C2283.83,1396.69 2286.77,1387.37 2288.14,1383.05" fill="none" stroke="rgb(212, 239, 253)" stroke-width="378.27" stroke-opacity="1.00" stroke-linejoin="round"/>
<path d="M639.37,865.28 C639.37,865.28 654.35,877.67 654.35,877.67 C654.35,877.67 649.20,888.20 649.20,888.20 C649.20,888.20 637.07,886.55 637.07,886.55 C636.45,883.59 634.68,875.02 634.91,871.80 C635.25,867.75 638.43,860.93 641.24,857.51 C641.26,857.49 646.37,851.58 647.07,850.76 C647.07,850.76 655.39,854.50 655.39,854.50 C655.39,854.50 647.11,863.54 647.11,863.54 C643.56,860.50 641.40,858.22 639.91,855.02 C639.09,853.12 638.23,850.07 638.18,848.24 C638.12,844.55 640.05,835.88 641.24,832.05 C642.83,827.04 646.29,819.84 647.97,818.03 C649.97,815.97 653.02,814.38 655.48,814.20 C655.97,814.17 659.81,814.28 661.29,814.27 C661.46,818.00 661.82,828.38 661.27,830.09 C660.45,832.57 658.57,834.70 657.05,835.29 C657.05,835.29 653.69,833.99 653.69,833.99 C656.28,823.29 660.11,811.09 662.45,810.58 C663.29,810.45 664.68,812.38 665.16,813.93 C666.14,817.48 667.30,824.83 667.43,829.06 C667.44,831.04 666.52,835.22 665.53,836.71 C664.89,837.66 661.44,839.71 661.53,839.39 C661.73,838.67 664.55,835.26 664.76,835.32 C664.76,835.33 656.72,844.89 654.04,847.39 C652.33,848.92 648.77,850.70 647.26,850.57 C646.43,850.48 643.63,848.45 642.66,847.79 C642.78,844.87 643.13,836.97 643.72,833.79 C644.13,831.84 645.85,828.06 647.12,826.67 C648.23,825.51 649.27,824.88 650.26,824.78 C651.33,824.72 652.17,826.80 652.03,828.50 C651.72,831.34 649.61,839.85 648.82,843.00 C645.98,842.09 638.92,839.84 634.71,838.49 C633.05,837.96 630.21,837.05 629.01,836.67" fill="none" stroke="rgb(212, 239, 253)" stroke-width="378.27" stroke-opacity="1.00" stroke-linejoin="round"/>
<path d="M673.96,1316.74 C673.41,1314.23 671.68,1306.23 670.75,1304.08 C669.95,1302.27 667.52,1299.00 665.91,1297.49 C663.26,1295.08 656.42,1291.77 650.74,1290.06 C647.24,1289.02 642.58,1287.63 641.42,1287.28 C636.16,1296.41 632.63,1303.40 630.11,1311.00 C625.98,1324.25 616.98,1353.82 613.71,1371.18 C612.22,1380.11 610.48,1393.03 609.59,1402.60 C608.57,1416.28 608.08,1442.29 608.55,1460.78 C609.39,1477.37 612.39,1514.08 614.10,1529.94 C616.05,1545.40 620.40,1577.59 622.80,1594.32 C628.23,1627.95 638.45,1689.70 645.11,1725.13 C648.65,1742.30 655.03,1769.44 658.25,1782.56 C661.73,1796.07 670.52,1826.26 675.14,1841.81 C679.83,1856.90 689.24,1886.67 693.44,1898.33 C695.68,1904.37 700.13,1916.07 702.34,1921.73 C706.50,1931.59 725.15,1969.34 731.05,1980.40 C745.74,2007.08 777.99,2064.61 795.45,2094.01 C804.07,2107.86 822.00,2135.98 832.04,2150.82 C842.03,2165.12 861.89,2192.08 871.73,2204.75 C881.30,2216.62 900.07,2239.30 909.26,2250.11 C913.73,2255.19 926.22,2268.64 932.40,2275.18 C946.82,2289.67 967.37,2308.41 978.14,2317.59 C983.34,2321.83 994.87,2330.82 1001.62,2335.28 C1009.72,2340.62 1021.29,2346.97 1031.51,2351.90 C1037.54,2354.72 1050.91,2360.85 1058.14,2362.86 C1062.33,2364.00 1068.13,2364.63 1071.76,2364.27 C1075.21,2363.89 1081.64,2361.20 1083.69,2360.21 C1087.13,2358.53 1093.38,2354.96 1096.55,2352.55 C1099.92,2349.96 1106.70,2343.46 1108.87,2340.73 C1112.91,2335.65 1121.45,2323.41 1125.90,2316.53 C1134.78,2302.12 1146.91,2279.67 1154.29,2264.24 C1160.83,2249.78 1169.10,2229.00 1177.45,2204.99 C1187.24,2174.38 1207.14,2110.33 1217.26,2076.87 C1222.49,2059.64 1232.56,2026.98 1237.41,2011.56 C1241.88,1997.96 1251.43,1969.52 1258.82,1949.07 C1265.77,1930.87 1274.20,1912.17 1283.27,1893.94 C1295.07,1870.75 1320.52,1820.96 1334.17,1794.36 C1348.81,1764.40 1378.47,1702.78 1393.49,1671.13 C1407.06,1642.25 1434.74,1583.16 1448.85,1552.95 C1460.69,1527.70 1486.68,1472.85 1500.82,1443.25 C1501.34,1442.15 1502.34,1440.06 1502.82,1439.08" fill="none" stroke="rgb(212, 239, 253)" stroke-width="378.27" stroke-opacity="1.00" stroke-linejoin="round"/>
<path d="M1477.35,1504.39 C1476.21,1505.62 1472.98,1508.82 1472.84,1508.98 C1471.03,1511.03 1469.51,1514.46 1469.15,1517.12 C1468.66,1521.24 1476.44,1552.23 1479.50,1570.83 C1482.73,1593.93 1486.18,1623.25 1487.94,1638.88 C1491.48,1675.68 1497.79,1741.56 1500.56,1770.64 C1501.72,1780.29 1503.70,1795.67 1504.74,1800.99 C1507.60,1814.38 1514.42,1838.60 1518.09,1851.35 C1520.36,1858.81 1525.93,1875.28 1529.24,1884.28 C1536.89,1903.82 1548.34,1929.93 1554.45,1943.59 C1561.61,1958.87 1576.41,1989.54 1584.04,2004.94 C1591.69,2019.55 1607.25,2047.57 1615.91,2062.04 C1624.60,2075.91 1642.11,2101.83 1650.98,2114.05 C1660.05,2126.12 1681.43,2153.11 1689.05,2162.05 C1700.26,2174.87 1723.56,2200.12 1735.40,2212.37 C1745.85,2222.99 1768.08,2245.33 1778.90,2255.36 C1785.36,2261.17 1795.67,2269.79 1800.57,2273.62 C1808.45,2279.55 1813.51,2283.04 1823.90,2289.68 C1830.96,2294.04 1847.32,2303.44 1851.70,2305.49 C1858.37,2308.60 1871.01,2313.03 1881.95,2316.38 C1889.44,2318.58 1908.37,2322.38 1912.70,2322.89 C1916.33,2323.29 1924.55,2323.67 1928.16,2323.34 C1932.20,2322.94 1939.53,2321.77 1943.04,2320.95 C1947.03,2320.01 1954.58,2317.26 1958.48,2315.34 C1963.94,2312.62 1975.78,2303.76 1981.39,2298.64 C1987.14,2293.37 1999.04,2280.14 2004.16,2273.33 C2009.59,2266.07 2025.81,2239.68 2036.32,2221.17 C2047.83,2200.42 2056.65,2183.00 2062.36,2171.60 C2067.78,2160.34 2080.95,2130.70 2088.48,2113.25 C2099.85,2085.24 2122.91,2027.58 2134.61,1997.92 C2147.20,1965.14 2171.19,1901.16 2182.60,1869.96 C2188.30,1853.50 2199.42,1820.79 2204.84,1804.53 C2214.65,1773.32 2232.89,1713.62 2241.32,1685.15 C2245.03,1672.13 2253.32,1642.20 2257.91,1625.29 C2262.00,1609.31 2269.53,1578.79 2272.96,1564.23 C2275.98,1549.66 2281.74,1520.34 2284.36,1504.88 C2286.88,1487.27 2291.50,1451.42 2293.61,1433.18 C2295.32,1417.60 2299.41,1381.62 2300.08,1377.88 C2300.37,1376.30 2309.31,1346.09 2310.08,1343.43" fill="none" stroke="rgb(212, 239, 253)" stroke-width="378.27" stroke-opacity="1.00" stroke-linejoin="round"/>
<path d="M717.37,1001.66 C715.77,1002.79 711.48,1007.17 711.04,1007.54 C708.23,1009.84 691.26,1017.29 685.21,1019.02 C678.87,1020.80 664.26,1022.04 657.66,1021.83 C648.58,1021.46 634.02,1019.81 627.40,1018.07 C620.27,1016.17 606.01,1010.79 598.76,1007.28 C595.23,1005.55 576.94,995.28 571.77,991.76 C564.60,986.85 552.68,976.52 547.15,970.85 C544.07,967.68 530.01,951.94 527.12,948.17 C522.75,942.46 515.53,929.80 512.17,922.68 C507.98,913.56 503.29,901.15 501.27,892.97 C499.40,885.27 497.34,872.42 496.73,864.73 C496.13,856.28 496.15,842.84 496.57,834.87 C496.85,830.27 499.06,812.13 500.12,806.61 C500.94,802.38 505.97,782.80 507.46,778.28 C509.60,771.82 515.26,757.46 519.09,750.02 C523.94,740.70 529.30,731.51 532.45,727.67 C535.37,724.13 550.07,709.06 553.34,705.96 C559.35,700.28 571.75,690.19 578.81,685.37 C584.43,681.55 600.24,672.32 605.38,669.63 C613.20,665.68 626.84,660.24 634.47,658.11 C642.56,655.88 655.84,653.81 664.01,653.81 C672.40,653.83 685.30,655.59 694.11,657.85 C705.67,660.98 714.60,663.86 722.58,667.06 C729.95,670.04 740.80,676.82 746.39,681.95 C751.91,687.06 760.46,698.54 764.89,706.09 C772.47,719.09 789.27,753.66 792.21,760.78 C793.59,764.14 800.31,782.64 802.08,788.82 C803.99,795.54 806.99,811.00 808.23,818.77 C809.40,826.86 810.47,842.24 810.24,849.74 C809.99,857.34 808.19,872.32 806.49,880.43 C805.03,887.35 800.42,902.77 797.93,910.16 C795.18,917.79 789.41,932.25 786.47,938.89 C783.49,945.40 775.32,959.37 770.76,965.80 C766.50,971.69 758.14,982.06 752.23,987.99 C746.48,993.73 735.07,1003.15 729.21,1006.84 C723.50,1010.40 708.16,1017.75 700.17,1020.84 C691.77,1024.06 677.26,1027.88 669.70,1029.10 C662.47,1030.24 648.43,1031.30 640.42,1030.83 C635.14,1030.52 619.34,1028.27 612.27,1026.75 C602.38,1024.42 590.41,1020.93 583.64,1018.22 C576.32,1015.23 558.16,1006.63 555.73,1005.34 C548.64,1001.52 538.56,993.95 532.59,987.72 C528.88,983.75 526.83,981.21 524.98,978.21 C522.11,973.44 518.14,959.19 516.34,952.23 C514.42,944.34 510.47,924.86 509.84,920.16 C508.03,905.60 506.30,872.94 506.35,857.68 C506.51,849.87 507.01,832.33 507.66,825.87 C508.49,817.77 511.40,802.03 513.68,793.62 C515.82,785.74 520.07,773.39 524.34,762.16 C527.06,755.30 533.79,739.44 537.39,733.29 C539.36,729.96 543.88,724.27 545.64,722.16 C547.46,720.01 550.38,717.57 553.52,715.68 C560.50,711.35 574.82,702.29 582.15,697.57 C582.87,697.10 583.60,696.63 584.33,696.16" fill="none" stroke="rgb(212, 239, 253)" stroke-width="94.57" stroke-opacity="1.00" stroke-linejoin="round"/>
<path d="M562.10,1022.90 C562.10,1022.90 565.93,1022.52 565.93,1022.52 C565.33,1024.58 565.34,1025.89 566.19,1028.11 C568.14,1033.07 571.58,1037.61 574.86,1039.91 C577.79,1041.91 583.52,1044.24 586.93,1044.98 C592.76,1046.19 609.41,1046.90 617.63,1047.10 C625.71,1047.17 643.20,1046.70 647.44,1046.32 C657.96,1045.38 686.71,1039.51 695.10,1037.73 C680.23,1040.27 641.54,1046.53 631.54,1046.72 C627.35,1046.79 613.77,1045.74 604.23,1044.54 C595.19,1043.20 582.16,1040.71 575.06,1038.81 C566.63,1036.43 553.42,1031.84 547.53,1029.09 C540.78,1025.92 526.75,1017.63 521.55,1013.73 C515.15,1008.90 503.91,998.41 499.36,992.79 C494.73,987.01 487.64,975.28 484.52,967.44 C481.50,959.79 478.08,946.95 476.64,938.96 C475.53,932.77 474.09,920.02 473.59,909.89 C473.40,902.31 473.58,883.89 473.88,879.07 C474.45,871.21 476.10,855.30 477.18,847.47 C477.90,842.63 481.70,824.30 483.55,816.68 C486.25,806.23 489.77,794.81 492.13,787.71 C494.60,780.72 498.83,769.76 503.04,760.58 C507.44,751.60 513.66,740.38 517.31,734.98 C521.27,729.23 530.20,717.65 535.16,711.88 C540.16,706.23 550.86,695.57 556.56,690.22 C562.43,684.95 574.30,674.87 580.41,670.22 C586.59,665.67 599.16,657.05 605.33,653.16 C612.51,648.85 625.54,642.33 632.70,639.45 C640.50,636.33 653.36,632.66 661.31,631.58 C669.49,630.50 682.61,630.66 690.69,632.13 C698.73,633.61 711.83,638.55 718.85,642.19 C724.67,645.24 737.55,653.86 742.87,658.15 C748.38,662.61 756.87,671.11 763.66,678.70 C768.34,684.16 775.99,694.29 780.87,701.34 C784.86,707.34 792.78,720.78 796.74,727.90 C801.03,735.94 807.28,748.81 810.55,755.92 C814.90,765.87 819.33,777.62 821.95,785.13 C824.62,793.20 827.87,806.87 829.13,814.97 C829.86,819.73 831.74,837.74 832.07,845.53 C832.26,853.49 832.05,871.50 831.56,877.56 C831.06,883.62 828.41,901.54 826.76,908.82 C825.05,916.27 820.75,929.20 817.48,937.12 C813.39,946.47 808.58,956.08 804.48,962.98 C800.73,969.11 793.40,980.40 788.20,987.07 C782.99,993.73 774.62,1002.40 768.41,1007.34 C763.06,1011.51 750.77,1019.41 744.81,1022.39 C739.06,1025.24 723.67,1031.36 717.35,1032.77 C713.00,1033.72 694.03,1035.15 685.37,1035.73 C676.41,1036.26 664.67,1036.95 661.89,1037.12" fill="none" stroke="rgb(212, 239, 253)" stroke-width="94.57" stroke-opacity="1.00" stroke-linejoin="round"/>
<path d="M653.32,884.42 C651.98,883.47 646.70,883.55 643.42,883.32 C642.28,883.24 633.01,882.11 630.11,881.43 C626.61,880.58 620.74,877.31 618.70,874.80 C616.78,872.36 614.85,866.65 614.29,863.00 C613.41,856.97 613.37,840.02 613.92,834.22 C614.25,830.91 615.54,823.48 616.78,820.25 C618.99,814.58 626.41,801.99 632.04,793.27 C634.56,789.43 638.50,785.16 641.71,783.18 C644.73,781.40 650.12,779.34 652.89,779.93 C654.37,780.29 656.95,781.58 657.95,782.53 C659.93,784.52 662.94,791.88 663.72,795.90 C665.15,803.62 665.96,820.44 665.62,826.09 C665.29,831.54 662.76,847.39 661.26,853.37 C660.25,857.32 657.80,863.38 655.89,866.33 C654.10,869.05 648.78,875.13 647.41,876.27 C644.81,878.39 639.46,880.04 636.58,880.40 C632.73,880.82 628.20,879.80 625.45,877.84 C622.96,875.98 619.52,869.84 618.18,866.05 C617.27,863.38 616.33,858.01 616.60,852.95 C617.50,837.36 622.42,818.75 624.89,811.40 C621.27,816.21 614.17,829.46 612.12,833.92 C609.49,839.66 603.10,856.95 601.79,862.80 C600.75,867.57 600.11,874.93 600.16,879.23 C600.23,882.99 601.27,887.80 602.71,891.66 C603.75,894.41 607.37,901.50 609.44,903.89 C611.33,906.04 617.85,910.87 621.48,911.90 C624.27,912.65 631.99,912.59 635.68,911.77 C639.36,910.91 645.40,908.04 649.86,905.18 C657.62,900.17 663.90,897.39 664.87,896.96 C656.79,904.37 649.08,911.72 648.44,914.16 C648.44,914.16 649.72,916.38 649.72,916.38 C655.58,915.75 659.84,914.76 663.46,912.90 C669.37,909.78 680.59,901.47 685.84,896.19 C691.27,890.69 700.80,879.17 703.21,874.89 C704.90,871.83 707.47,864.76 708.27,861.61 C708.97,858.77 710.25,850.51 710.37,847.71 C710.49,844.73 709.81,836.79 709.19,834.42 C708.08,830.38 704.42,824.99 701.02,821.44 C696.92,817.23 691.20,812.35 689.04,811.76 C687.44,811.33 686.13,811.25 685.12,811.52 C684.02,811.82 683.13,812.99 681.99,812.91 C680.84,812.81 678.92,810.08 678.37,808.30 C677.15,803.91 676.29,799.07 675.16,791.59 C674.28,785.45 674.33,784.07 675.47,780.48 C676.02,778.73 676.43,775.98 676.21,774.56 C675.98,773.20 674.45,770.23 673.40,768.97 C672.29,767.73 670.07,766.57 668.60,766.48 C665.99,766.42 659.88,769.84 656.40,772.50 C650.40,777.14 638.40,788.10 632.90,794.08 C629.88,797.37 625.89,802.44 623.52,806.03 C619.19,812.64 614.50,825.47 612.69,833.19 C602.45,880.90 598.33,904.79 598.34,907.19 C598.39,908.54 599.41,910.30 600.60,910.95 C601.69,911.51 623.73,918.26 630.18,919.01 C633.51,919.37 641.26,919.34 644.67,918.98 C648.34,918.56 654.30,916.62 657.77,914.99 C660.77,913.55 666.49,909.60 668.44,907.69 C670.67,905.46 674.35,899.48 675.37,897.03 C676.65,893.88 677.69,887.20 677.69,883.21 C677.61,872.58 670.68,835.55 670.34,823.39 C670.23,819.12 670.69,809.17 670.65,808.94 C670.60,808.73 670.43,808.56 670.14,808.44" fill="none" stroke="rgb(212, 239, 253)" stroke-width="284.52" stroke-opacity="1.00" stroke-linejoin="round"/>
<path d="M2338.40,952.76 C2335.70,953.12 2331.45,956.27 2329.01,956.62 C2317.56,958.21 2292.36,950.08 2291.92,949.71 C2290.84,948.72 2290.37,947.82 2290.51,947.02 C2290.58,946.64 2297.99,938.05 2300.05,934.90 C2302.02,931.79 2305.69,926.05 2308.04,922.78 C2311.45,918.06 2314.43,914.50 2317.62,912.03 C2321.61,909.00 2333.63,903.07 2334.80,902.49 C2335.48,906.40 2335.49,910.14 2334.57,914.91 C2333.70,919.24 2331.90,926.51 2330.66,930.51 C2329.24,934.96 2327.29,937.87 2324.48,940.39 C2323.04,940.32 2321.05,939.61 2320.25,938.60 C2319.27,937.31 2319.49,929.31 2320.73,925.39 C2322.14,921.09 2325.52,914.52 2328.08,911.93 C2329.61,910.41 2334.32,906.90 2336.92,905.61 C2340.02,904.11 2344.32,903.30 2347.67,903.59 C2349.26,903.75 2352.04,904.39 2353.64,905.01 C2355.40,905.71 2357.73,907.41 2358.98,908.87 C2360.09,910.21 2361.84,913.29 2362.44,914.98 C2363.14,917.10 2363.02,919.83 2362.15,922.05 C2360.51,925.99 2356.50,930.56 2353.36,932.80 C2349.35,935.64 2344.61,938.59 2341.31,940.05 C2338.10,941.44 2330.70,943.50 2327.51,943.74 C2323.86,943.96 2318.84,942.48 2314.76,940.25 C2314.35,940.02 2313.76,939.71 2313.00,939.31 C2312.74,937.81 2311.95,933.66 2311.94,932.66 C2311.93,930.69 2313.04,927.05 2314.08,925.42 C2316.10,922.41 2322.48,916.87 2325.97,915.13 C2328.03,914.13 2337.06,910.89 2339.94,910.04 C2342.92,909.19 2348.18,909.91 2352.29,911.38 C2354.05,912.04 2357.44,913.67 2358.50,914.49 C2360.05,915.74 2361.93,918.32 2362.68,920.21 C2363.87,923.41 2363.67,930.68 2362.54,933.50 C2361.37,936.26 2356.80,940.76 2354.04,941.65 C2352.87,941.99 2349.62,942.41 2348.43,942.24 C2346.23,941.87 2342.55,940.10 2341.63,938.72 C2340.77,937.34 2340.62,933.09 2341.28,931.52 C2341.94,930.09 2344.78,927.86 2346.45,927.36 C2348.19,926.92 2352.05,927.33 2353.26,928.23 C2354.45,929.18 2356.25,933.13 2356.43,934.94 C2356.63,937.88 2353.31,944.17 2351.22,946.60 C2349.25,948.83 2343.92,951.91 2341.50,952.60 C2339.52,953.12 2336.17,953.37 2334.83,952.95 C2333.72,952.59 2331.62,951.17 2330.31,950.13 C2330.85,947.86 2333.62,944.77 2337.08,942.97 C2339.82,941.61 2344.41,941.67 2346.19,941.92 C2346.98,943.43 2347.06,944.69 2345.78,946.05 C2342.59,949.44 2324.11,962.72 2321.50,963.50 C2321.14,963.61 2320.61,963.71 2319.93,963.81 C2321.31,961.74 2325.65,957.92 2330.33,954.40 C2333.86,951.84 2340.69,946.96 2343.46,945.08 C2346.05,943.30 2348.58,942.96 2349.64,942.96 C2337.95,958.25 2329.90,963.99 2327.68,965.16 C2327.68,965.16 2339.80,950.12 2339.80,950.12 C2332.39,955.71 2321.50,962.61 2315.10,965.75 C2311.21,967.62 2304.56,969.65 2300.95,969.57 C2297.11,969.43 2291.98,967.91 2289.82,965.74 C2287.68,963.55 2283.01,956.19 2282.92,956.04 C2281.18,952.84 2279.63,944.91 2279.48,940.67 C2279.26,932.77 2282.00,898.89 2283.17,894.97 C2284.39,891.01 2290.98,876.45 2295.79,868.15 C2299.97,861.11 2309.34,845.66 2313.17,840.23 C2318.65,832.48 2329.92,821.48 2331.73,819.54 C2333.83,817.28 2335.69,815.00 2336.62,813.46 C2338.10,810.93 2338.59,806.20 2338.64,804.20 C2341.29,804.37 2342.45,804.79 2343.84,806.31 C2347.38,810.04 2350.50,815.06 2351.75,818.43 C2353.87,824.37 2355.96,836.70 2356.83,848.49 C2357.66,863.47 2358.95,905.86 2358.43,909.72 C2357.95,913.19 2356.28,919.27 2355.29,920.90 C2353.49,923.79 2342.71,930.96 2332.47,939.30 C2325.70,945.12 2310.05,958.54 2307.98,959.54 C2306.65,960.17 2296.33,962.60 2294.20,962.56 C2290.44,962.44 2283.18,959.09 2278.78,956.15 C2277.16,955.04 2273.62,952.59 2273.03,952.08 C2270.98,950.24 2269.63,947.98 2269.43,945.90 C2269.18,942.75 2269.43,934.65 2270.02,931.82 C2271.30,926.03 2274.89,917.03 2279.39,906.57 C2302.31,854.77 2310.77,839.36 2312.97,835.41 C2312.97,835.41 2292.00,869.94 2292.00,869.94 C2291.60,867.27 2292.29,861.88 2293.58,856.50 C2295.81,847.85 2301.06,835.49 2305.13,827.95 C2307.83,823.06 2310.86,819.71 2314.46,817.63 C2316.56,816.43 2322.53,813.38 2323.64,812.82 C2318.17,816.44 2304.96,825.18 2297.21,830.30 C2295.71,831.28 2289.37,835.46 2288.18,835.40 C2288.18,835.40 2311.03,813.75 2311.03,813.75 C2311.03,813.75 2289.52,827.84 2289.52,827.84 C2289.52,827.84 2300.17,816.12 2300.17,816.12 C2300.17,816.12 2284.74,831.58 2284.74,831.58 C2292.26,825.16 2298.70,820.12 2309.46,812.67 C2323.22,803.61 2341.52,791.58 2343.27,790.21 C2345.60,801.71 2347.66,810.78 2351.02,818.96 C2353.28,824.39 2362.73,841.94 2364.05,845.11 C2365.62,848.93 2366.45,864.80 2365.91,871.13 C2365.44,876.57 2362.03,897.61 2360.42,906.83 C2358.19,918.97 2357.09,923.78 2356.37,924.71 C2354.61,926.96 2332.64,947.46 2331.72,948.32" fill="none" stroke="rgb(212, 239, 253)" stroke-width="284.52" stroke-opacity="1.00" stroke-linejoin="round"/>
<path d="M2313.88,958.15 C2316.54,960.08 2321.42,961.67 2325.03,961.79 C2328.16,961.84 2334.58,960.18 2338.08,958.63 C2341.50,957.09 2347.87,953.14 2350.36,950.72 C2351.85,949.26 2355.19,945.00 2356.01,943.97 C2349.00,949.19 2337.43,955.86 2331.69,957.83 C2326.73,959.51 2313.98,962.31 2311.41,962.87 C2317.10,962.41 2328.57,958.18 2337.82,954.32 C2342.12,952.45 2347.89,948.75 2348.91,948.06 C2352.20,945.74 2354.16,944.07 2353.91,943.58 C2353.71,943.28 2349.03,943.96 2347.30,944.41 C2342.81,945.66 2338.11,948.92 2333.60,952.67" fill="none" stroke="rgb(212, 239, 253)" stroke-width="284.52" stroke-opacity="1.00" stroke-linejoin="round"/>
</g>
<g stroke-linecap="round" transform="translate(1775.00, 12.00)" id="レイヤー_2_のコピー_3">
<path d="M549.18,840.76 C549.18,840.76 564.15,853.15 564.15,853.15 C564.15,853.15 559.01,863.68 559.01,863.68 C559.01,863.68 546.88,862.03 546.88,862.03 C546.26,859.07 544.49,850.50 544.72,847.27 C545.06,843.23 548.24,836.41 551.05,832.99 C551.07,832.96 556.17,827.05 556.88,826.24 C556.88,826.24 565.20,829.97 565.20,829.97 C565.20,829.97 556.92,839.01 556.92,839.01 C553.36,835.97 551.20,833.70 549.72,830.49 C548.90,828.60 548.04,825.54 547.99,823.71 C547.93,820.02 549.85,811.35 551.05,807.52 C552.63,802.52 556.10,795.32 557.78,793.51 C559.77,791.44 562.83,789.85 565.29,789.67 C565.78,789.64 569.62,789.76 571.09,789.74 C571.27,793.48 571.62,803.85 571.08,805.56 C570.26,808.04 568.37,810.17 566.85,810.76 C566.85,810.76 563.49,809.46 563.49,809.46 C566.08,798.76 569.91,786.57 572.26,786.05 C573.09,785.92 574.49,787.86 574.96,789.41 C575.95,792.95 577.10,800.30 577.23,804.54 C577.25,806.51 576.33,810.69 575.34,812.18 C574.69,813.13 571.25,815.18 571.34,814.86 C571.53,814.15 574.36,810.74 574.56,810.79 C574.57,810.80 566.53,820.37 563.84,822.87 C562.14,824.39 558.58,826.17 557.07,826.04 C556.23,825.95 553.44,823.93 552.46,823.27 C552.59,820.35 552.94,812.44 553.53,809.26 C553.93,807.31 555.65,803.54 556.93,802.15 C558.04,800.98 559.08,800.35 560.06,800.25 C561.14,800.20 561.98,802.27 561.83,803.97 C561.53,806.81 559.41,815.33 558.63,818.48 C555.78,817.57 548.73,815.31 544.51,813.96 C542.86,813.44 540.02,812.53 538.82,812.14" fill="none" stroke="rgb(212, 239, 253)" stroke-width="378.27" stroke-opacity="1.00" stroke-linejoin="round"/>
<path d="M627.18,977.13 C625.58,978.26 621.29,982.65 620.85,983.01 C618.04,985.31 601.07,992.76 595.02,994.49 C588.68,996.27 574.07,997.52 567.47,997.30 C558.39,996.93 543.82,995.28 537.21,993.54 C530.08,991.64 515.82,986.26 508.57,982.75 C505.03,981.03 486.75,970.75 481.58,967.24 C474.41,962.32 462.49,951.99 456.96,946.33 C453.87,943.15 439.82,927.42 436.92,923.65 C432.56,917.93 425.34,905.27 421.98,898.16 C417.79,889.03 413.09,876.62 411.08,868.44 C409.21,860.74 407.15,847.89 406.54,840.20 C405.94,831.76 405.96,818.32 406.38,810.34 C406.66,805.75 408.87,787.60 409.93,782.08 C410.74,777.85 415.78,758.28 417.27,753.75 C419.40,747.29 425.06,732.94 428.90,725.49 C433.75,716.17 439.10,706.99 442.26,703.14 C445.18,699.60 459.88,684.53 463.14,681.43 C469.16,675.75 481.56,665.66 488.62,660.84 C494.23,657.02 510.05,647.79 515.19,645.10 C523.01,641.15 536.64,635.72 544.28,633.59 C552.37,631.35 565.64,629.28 573.81,629.28 C582.20,629.31 595.11,631.07 603.92,633.33 C615.48,636.45 624.41,639.34 632.38,642.54 C639.76,645.52 650.61,652.29 656.20,657.42 C661.71,662.53 670.27,674.01 674.70,681.57 C682.28,694.56 699.07,729.14 702.02,736.26 C703.40,739.62 710.12,758.11 711.89,764.29 C713.80,771.01 716.80,786.47 718.03,794.25 C719.20,802.33 720.27,817.71 720.05,825.21 C719.79,832.81 717.99,847.80 716.30,855.91 C714.84,862.83 710.23,878.24 707.74,885.64 C704.98,893.27 699.22,907.72 696.28,914.36 C693.30,920.87 685.13,934.84 680.57,941.27 C676.31,947.16 667.94,957.54 662.03,963.47 C656.29,969.21 644.88,978.62 639.01,982.31 C633.31,985.87 617.97,993.23 609.98,996.31 C601.58,999.53 587.07,1003.35 579.51,1004.57 C572.28,1005.72 558.24,1006.77 550.22,1006.31 C544.95,1005.99 529.15,1003.75 522.08,1002.22 C512.19,999.89 500.21,996.40 493.45,993.70 C486.12,990.70 467.97,982.11 465.54,980.81 C458.45,976.99 448.37,969.42 442.40,963.20 C438.68,959.22 436.64,956.68 434.79,953.68 C431.91,948.91 427.95,934.66 426.15,927.71 C424.22,919.82 420.28,900.33 419.65,895.64 C417.84,881.07 416.11,848.41 416.16,833.16 C416.32,825.34 416.81,807.80 417.46,801.35 C418.30,793.24 421.21,777.50 423.48,769.09 C425.63,761.22 429.88,748.86 434.15,737.64 C436.86,730.77 443.60,714.91 447.20,708.77 C449.17,705.44 453.68,699.74 455.45,697.63 C457.27,695.48 460.19,693.04 463.32,691.15 C470.31,686.82 484.62,677.77 491.96,673.04 C492.68,672.57 493.41,672.10 494.13,671.63" fill="none" stroke="rgb(212, 239, 253)" stroke-width="94.57" stroke-opacity="1.00" stroke-linejoin="round"/>
<path d="M471.91,998.38 C471.91,998.38 475.74,998.00 475.74,998.00 C475.14,1000.05 475.15,1001.36 476.00,1003.59 C477.94,1008.54 481.38,1013.08 484.67,1015.39 C487.60,1017.38 493.32,1019.72 496.74,1020.46 C502.57,1021.67 519.21,1022.38 527.44,1022.58 C535.52,1022.65 553.00,1022.17 557.24,1021.80 C567.76,1020.85 596.52,1014.98 604.91,1013.20 C590.04,1015.74 551.35,1022.00 541.34,1022.20 C537.16,1022.26 523.58,1021.22 514.04,1020.01 C505.00,1018.68 491.97,1016.18 484.87,1014.29 C476.44,1011.90 463.23,1007.32 457.34,1004.57 C450.59,1001.39 436.56,993.11 431.36,989.20 C424.96,984.37 413.72,973.89 409.17,968.26 C404.54,962.48 397.45,950.75 394.33,942.91 C391.31,935.26 387.88,922.42 386.44,914.43 C385.34,908.24 383.89,895.49 383.39,885.36 C383.20,877.78 383.39,859.37 383.69,854.55 C384.26,846.68 385.91,830.78 386.98,822.94 C387.70,818.10 391.51,799.77 393.35,792.15 C396.06,781.71 399.58,770.29 401.93,763.19 C404.41,756.20 408.64,745.23 412.84,736.06 C417.24,727.08 423.46,715.85 427.12,710.46 C431.07,704.70 440.01,693.12 444.97,687.35 C449.97,681.70 460.67,671.04 466.37,665.70 C472.24,660.42 484.11,650.34 490.21,645.70 C496.40,641.15 508.97,632.53 515.14,628.63 C522.31,624.32 535.35,617.80 542.50,614.92 C550.30,611.81 563.16,608.14 571.12,607.06 C579.30,605.98 592.41,606.14 600.50,607.60 C608.54,609.09 621.64,614.02 628.66,617.67 C634.48,620.71 647.36,629.33 652.68,633.62 C658.19,638.08 666.68,646.58 673.47,654.18 C678.15,659.63 685.80,669.76 690.68,676.82 C694.67,682.82 702.59,696.26 706.54,703.38 C710.83,711.42 717.08,724.28 720.36,731.39 C724.70,741.34 729.14,753.09 731.75,760.60 C734.42,768.68 737.67,782.35 738.94,790.44 C739.67,795.20 741.55,813.21 741.87,821.00 C742.06,828.96 741.86,846.97 741.37,853.03 C740.86,859.09 738.21,877.01 736.56,884.29 C734.85,891.74 730.55,904.68 727.28,912.59 C723.19,921.95 718.38,931.55 714.29,938.46 C710.54,944.58 703.21,955.87 698.01,962.54 C692.80,969.20 684.43,977.87 678.22,982.81 C672.86,986.98 660.58,994.88 654.61,997.86 C648.87,1000.71 633.47,1006.83 627.15,1008.25 C622.81,1009.20 603.83,1010.62 595.18,1011.20 C586.22,1011.73 574.47,1012.43 571.69,1012.59" fill="none" stroke="rgb(212, 239, 253)" stroke-width="94.57" stroke-opacity="1.00" stroke-linejoin="round"/>
</g>
</svg>
